<svg width="227" height="25" viewBox="0 0 227 25" fill="none" xmlns="http://www.w3.org/2000/svg">
<path fill-rule="evenodd" clip-rule="evenodd" d="M4.425 5.77424L4.475 5.79924V8.72424H4.55C5.15 7.07424 6.62422 5.72424 8.77422 5.72424C11.5742 5.72424 12.4242 7.12424 12.4242 9.77424V15.0485C12.4242 16.6485 12.5242 18.2985 12.9242 19.5485H8.4C8.77422 18.3735 8.82422 16.9235 8.82422 15.1992V10.1742C8.82422 8.94924 8.32422 8.37424 6.99922 8.37424C5.97422 8.37424 5.2 8.64924 4.62422 9.17424V15.1992C4.62422 16.9235 4.67422 18.3735 5.04922 19.5485H0.525C0.925 18.2985 1.025 16.6485 1.025 15.0485V10.1742C1.025 8.84924 0.55 7.67424 0 7.04924L4.425 5.77424Z" fill="#1A1919"/>
<path fill-rule="evenodd" clip-rule="evenodd" d="M20.4242 16.9485V12.0492C20.1492 12.4492 19.7992 12.6985 18.7992 13.1742C17.5242 13.7992 17.0742 14.4735 17.0742 15.9235C17.0742 17.0985 17.7242 17.8485 18.7742 17.8485C19.7992 17.8485 20.1492 17.4735 20.4242 16.9485ZM19.2492 5.72424C22.7492 5.72424 24.0492 7.09924 24.0492 9.94924V15.9235C24.0492 16.9985 24.4742 17.3235 25.3242 17.3235C25.4734 17.3235 25.8984 17.2485 26.0484 17.1235C25.9742 17.5235 25.9242 17.7485 25.8242 17.9985C25.4242 19.1235 24.6992 19.8485 23.2242 19.8485C21.4992 19.8485 20.6242 18.6485 20.5742 17.3735H20.5242C19.9492 19.0985 18.8242 19.8485 17.0492 19.8485C14.875 19.8485 13.475 18.5485 13.475 16.4985C13.475 14.3485 15.425 13.4242 17.4492 12.6242C19.3742 11.8485 20.4242 11.2992 20.4242 9.92424V9.64924C20.4242 8.12424 19.9492 7.34924 18.5242 7.34924C17.6242 7.34924 17.2992 7.74924 17.0992 8.62424C16.8242 9.92424 16.2992 10.3992 15.425 10.3992C14.6492 10.3992 13.9492 9.87424 13.9492 8.92424C13.9492 7.02424 16.55 5.72424 19.2492 5.72424Z" fill="#1A1919"/>
<path fill-rule="evenodd" clip-rule="evenodd" d="M33.8493 18.0735C33.3743 19.1485 32.2243 19.8485 30.5993 19.8485C27.8243 19.8485 26.7493 18.4485 26.7493 15.8985V7.92424H25.425V7.82424L30.2743 2.84924L30.3493 2.87502V6.02424H33.7993L33.4493 7.92424H30.3493V15.3235C30.3493 16.7485 30.9493 17.2985 32.2243 17.2985C33.1993 17.2985 33.7243 17.1485 34.1493 16.9235C34.0743 17.3985 34.0243 17.6735 33.8493 18.0735Z" fill="#1A1919"/>
<path fill-rule="evenodd" clip-rule="evenodd" d="M38.5242 5.92419V15.2734C38.5242 16.6734 39.0742 17.4484 40.4242 17.4484C41.5735 17.4484 42.4242 17.0734 42.9235 16.4242V10.0992C42.9235 8.72419 42.7742 7.54919 42.3492 6.34919L46.5235 5.92419V15.4984C46.5235 17.5984 46.7485 18.5484 47.0735 19.5484H43.0235V16.8484H42.9735C42.3992 18.5734 41.2742 19.8234 38.9492 19.8234C35.9992 19.8234 34.9242 18.0484 34.9242 15.3984V10.0992C34.9242 8.72419 34.7992 7.54919 34.3492 6.34919L38.5242 5.92419Z" fill="#1A1919"/>
<path fill-rule="evenodd" clip-rule="evenodd" d="M52.2743 9.19924C52.8743 6.69924 54.0235 5.72424 55.5485 5.72424C56.9493 5.72424 57.6485 6.44924 57.6485 7.59924C57.6485 8.64924 57.0735 9.47424 55.9743 9.47424C55.3493 9.47424 54.9743 9.19924 54.6993 8.92424C54.3743 8.64924 54.1743 8.34924 53.8743 8.34924C53.1493 8.34924 52.3493 9.54924 52.3493 11.6242V14.9735C52.3493 16.6485 52.4743 18.2985 52.7993 19.5485H48.2743C48.6743 18.2985 48.7743 16.6485 48.7743 15.0485V10.1742C48.7743 8.84924 48.2993 7.67424 47.7493 7.04924L52.1743 5.77424L52.2243 5.79924V9.19924H52.2743Z" fill="#1A1919"/>
<path fill-rule="evenodd" clip-rule="evenodd" d="M60.8743 11.1742L65.3985 10.7742C65.3485 8.62422 65.0235 7.34922 63.5235 7.34922C61.9985 7.34922 61.0985 8.57422 60.8743 11.1742ZM63.5735 19.8484C60.1243 19.8484 57.2493 17.5484 57.2493 13.1492C57.2493 8.67422 59.9743 5.69922 63.6485 5.69922C67.1485 5.69922 68.7735 7.92422 68.7735 12.0992H60.8243V12.4984C60.8243 15.8734 62.5735 17.1984 64.9485 17.1984C67.0985 17.1984 68.0735 16.3234 68.6985 15.6984L68.7735 15.9234C68.1985 17.9484 66.5735 19.8484 63.5735 19.8484Z" fill="#1A1919"/>
<path fill-rule="evenodd" clip-rule="evenodd" d="M79.3484 18.1735C81.6234 18.1735 82.4234 16.1235 82.4234 12.7742C82.4234 9.52424 81.6734 8.17424 79.6734 8.17424C78.7234 8.17424 77.6734 8.67424 77.2734 9.22424V17.4735C77.8484 17.9235 78.5984 18.1735 79.3484 18.1735ZM77.2484 8.57424H77.2984C77.7234 7.27424 79.4984 5.69924 81.5484 5.69924C84.3484 5.69924 86.3477 7.69924 86.3477 12.2735C86.3477 16.2985 84.2977 19.8485 79.3484 19.8485C76.9734 19.8485 75.1242 19.2985 73.6484 18.5735V4.59924C73.6484 2.87502 73.2242 1.90002 72.6992 1.25002L77.2984 0.0250244L77.3484 0.0500244L77.2484 3.62502V8.57424Z" fill="#1A1919"/>
<path fill-rule="evenodd" clip-rule="evenodd" d="M87.4485 2.79917C87.4485 1.59995 88.3485 0.64917 89.6235 0.64917C90.9235 0.64917 91.8235 1.59995 91.8235 2.79917C91.8235 3.97417 90.9235 4.94917 89.6235 4.94917C88.3485 4.94917 87.4485 3.97417 87.4485 2.79917ZM91.5735 15.0484C91.5735 16.6484 91.6735 18.2984 92.0735 19.5484H87.4485C87.8485 18.2984 87.9485 16.6484 87.9485 15.0484V10.1742C87.9485 8.84917 87.4735 7.67417 86.9235 7.04917L91.6235 5.77417L91.6735 5.79917L91.5735 9.17417V15.0484Z" fill="#1A1919"/>
<path fill-rule="evenodd" clip-rule="evenodd" d="M102.448 12.8492C102.448 8.42424 101.398 7.37424 99.6476 7.37424C97.9984 7.37424 97.0476 8.57424 97.0476 12.7242C97.0476 17.1485 98.0976 18.1985 99.8476 18.1985C101.498 18.1985 102.448 16.9985 102.448 12.8492ZM106.373 12.7742C106.373 17.1235 103.223 19.8485 99.8476 19.8485C96.4226 19.8485 93.1234 17.2735 93.1234 12.7992C93.1234 8.44924 96.2726 5.72424 99.6476 5.72424C103.073 5.72424 106.373 8.29924 106.373 12.7742Z" fill="#1A1919"/>
<path fill-rule="evenodd" clip-rule="evenodd" d="M114.998 18.0735C114.523 19.1485 113.373 19.8485 111.748 19.8485C108.973 19.8485 107.898 18.4485 107.898 15.8985V7.92424H106.573V7.82424L111.423 2.84924L111.498 2.87502V6.02424H114.948L114.598 7.92424H111.498V15.3235C111.498 16.7485 112.098 17.2985 113.373 17.2985C114.348 17.2985 114.873 17.1485 115.298 16.9235C115.223 17.3985 115.173 17.6735 114.998 18.0735Z" fill="#1A1919"/>
<path fill-rule="evenodd" clip-rule="evenodd" d="M118.723 11.1742L123.248 10.7742C123.198 8.62422 122.873 7.34922 121.373 7.34922C119.848 7.34922 118.948 8.57422 118.723 11.1742ZM121.423 19.8484C117.973 19.8484 115.098 17.5484 115.098 13.1492C115.098 8.67422 117.823 5.69922 121.498 5.69922C124.998 5.69922 126.623 7.92422 126.623 12.0992H118.673V12.4984C118.673 15.8734 120.423 17.1984 122.798 17.1984C124.948 17.1984 125.923 16.3234 126.547 15.6984L126.623 15.9234C126.048 17.9484 124.423 19.8484 121.423 19.8484Z" fill="#1A1919"/>
<path fill-rule="evenodd" clip-rule="evenodd" d="M133.548 19.8485C129.923 19.8485 127.473 17.2985 127.473 13.0735C127.473 8.34924 130.673 5.72424 133.998 5.72424C137.098 5.72424 138.397 7.09924 138.397 8.52424C138.397 9.54924 137.797 10.1992 136.748 10.1992C135.823 10.1992 135.373 9.59924 135.198 8.42424C135.073 7.49924 134.748 7.32424 133.873 7.32424C132.123 7.32424 131.048 9.17424 131.048 12.1992C131.048 15.6985 132.548 17.1485 134.898 17.1485C136.373 17.1485 137.723 16.6985 138.497 15.9235L138.547 16.1235C138.148 17.7485 136.648 19.8485 133.548 19.8485Z" fill="#1A1919"/>
<path fill-rule="evenodd" clip-rule="evenodd" d="M143.373 8.67424H143.448C144.048 7.02424 145.397 5.72424 147.547 5.72424C150.347 5.72424 151.197 7.12424 151.197 9.77424V15.0485C151.197 16.6485 151.297 18.2985 151.697 19.5485H147.172C147.547 18.3735 147.597 16.9235 147.597 15.1992V10.1742C147.597 8.94924 147.097 8.37424 145.772 8.37424C144.747 8.37424 143.947 8.64924 143.398 9.17424V15.1992C143.398 16.9235 143.448 18.3735 143.823 19.5485H139.298C139.698 18.2985 139.798 16.6485 139.798 15.0485V4.59924C139.798 2.87502 139.373 1.90002 138.848 1.25002L143.448 0.0250244L143.498 0.0500244L143.373 3.62502V8.67424Z" fill="#1A1919"/>
<path fill-rule="evenodd" clip-rule="evenodd" d="M156.623 5.77424L156.673 5.79924V8.72424H156.748C157.348 7.07424 158.822 5.72424 160.972 5.72424C163.772 5.72424 164.622 7.12424 164.622 9.77424V15.0485C164.622 16.6485 164.722 18.2985 165.122 19.5485H160.597C160.972 18.3735 161.022 16.9235 161.022 15.1992V10.1742C161.022 8.94924 160.522 8.37424 159.197 8.37424C158.172 8.37424 157.398 8.64924 156.822 9.17424V15.1992C156.822 16.9235 156.872 18.3735 157.247 19.5485H152.723C153.123 18.2985 153.223 16.6485 153.223 15.0485V10.1742C153.223 8.84924 152.748 7.67424 152.198 7.04924L156.623 5.77424Z" fill="#1A1919"/>
<path fill-rule="evenodd" clip-rule="evenodd" d="M175.272 12.8492C175.272 8.42424 174.222 7.37424 172.472 7.37424C170.822 7.37424 169.872 8.57424 169.872 12.7242C169.872 17.1485 170.922 18.1985 172.672 18.1985C174.322 18.1985 175.272 16.9985 175.272 12.8492ZM179.197 12.7742C179.197 17.1235 176.047 19.8485 172.672 19.8485C169.247 19.8485 165.948 17.2735 165.948 12.7992C165.948 8.44924 169.097 5.72424 172.472 5.72424C175.896 5.72424 179.197 8.29924 179.197 12.7742Z" fill="#1A1919"/>
<path fill-rule="evenodd" clip-rule="evenodd" d="M184.372 15.0484C184.372 16.6484 184.472 18.2984 184.872 19.5484H180.247C180.648 18.2984 180.747 16.6484 180.747 15.0484V4.39922C180.747 3.07422 180.273 1.9 179.722 1.275L184.422 0L184.472 0.025C184.397 1.2 184.372 3.25 184.372 3.89922V15.0484Z" fill="#1A1919"/>
<path fill-rule="evenodd" clip-rule="evenodd" d="M195.246 12.8492C195.246 8.42424 194.196 7.37424 192.447 7.37424C190.797 7.37424 189.846 8.57424 189.846 12.7242C189.846 17.1485 190.897 18.1985 192.646 18.1985C194.296 18.1985 195.246 16.9985 195.246 12.8492ZM199.171 12.7742C199.171 17.1235 196.021 19.8485 192.646 19.8485C189.222 19.8485 185.922 17.2735 185.922 12.7992C185.922 8.44924 189.072 5.72424 192.447 5.72424C195.871 5.72424 199.171 8.29924 199.171 12.7742Z" fill="#1A1919"/>
<path fill-rule="evenodd" clip-rule="evenodd" d="M207.496 10.2992C207.496 8.29924 206.596 7.27424 205.322 7.27424C203.946 7.27424 203.196 8.19924 203.196 10.4992C203.196 12.4985 204.097 13.5235 205.396 13.5235C206.746 13.5235 207.496 12.5985 207.496 10.2992ZM205.346 23.2985C208.771 23.2985 210.196 22.2477 210.196 21.0985C210.196 20.2735 209.671 19.9985 208.596 19.9985C207.146 19.9985 203.846 20.1485 203.196 20.2235C202.597 20.2985 202.172 20.8985 202.172 21.4985C202.172 22.5735 203.122 23.2985 205.346 23.2985ZM209.096 6.84924H209.171C209.821 5.67424 211.046 5.09924 211.821 5.09924C213.021 5.09924 213.77 5.72424 213.77 6.67424C213.77 7.57424 213.321 8.29924 212.42 8.29924C211.721 8.29924 211.446 7.92424 211.221 7.62424C210.996 7.34924 210.796 7.04924 210.296 7.04924C210.071 7.04924 209.846 7.12424 209.646 7.24924C210.396 8.14924 210.871 9.17424 210.871 10.2492C210.871 13.4242 208.246 15.0985 205.346 15.0985C204.572 15.0985 203.772 14.9735 203.046 14.7485C202.647 14.9985 202.497 15.3485 202.497 15.8235C202.497 16.3485 202.872 16.7485 203.722 16.7485C205.322 16.7485 207.771 16.5985 209.371 16.5985C211.596 16.5985 212.921 17.5485 212.921 19.6985C212.921 22.9735 209.996 24.7727 205.346 24.7727C201.022 24.7727 199.222 23.5735 199.222 22.1735C199.222 20.9485 200.797 20.3235 202.671 20.0235V19.9485C201.347 19.6985 200.197 18.6485 200.197 17.1985C200.197 15.7735 201.197 14.8742 202.547 14.4992V14.3992C200.972 13.7235 199.822 12.3992 199.822 10.5492C199.822 7.37424 202.447 5.69924 205.346 5.69924C206.721 5.69924 208.146 6.07424 209.096 6.84924Z" fill="#1A1919"/>
<path fill-rule="evenodd" clip-rule="evenodd" d="M215.347 9.87427C214.671 8.12427 214.146 7.04927 213.547 5.99927H218.396C218.271 7.04927 218.521 7.92427 219.021 9.44927L220.821 14.8743H220.871L222.721 9.32427C223.121 8.09927 223.271 7.02427 222.946 5.99927H226.346C225.746 7.04927 225.096 8.22427 224.446 10.0243L221.621 17.7235C219.771 22.7485 218.046 24.7985 215.622 24.7985C214.372 24.7985 213.647 24.1485 213.647 23.1735C213.647 22.3235 214.222 21.7985 215.022 21.7985C215.871 21.7985 216.146 22.4735 216.671 22.4735C217.396 22.4735 218.371 20.9485 218.946 19.1985L215.347 9.87427Z" fill="#1A1919"/>
</svg>
