<?xml version="1.0" encoding="UTF-8"?>
<svg width="117px" height="57px" viewBox="0 0 117 57" version="1.1" xmlns="http://www.w3.org/2000/svg" xmlns:xlink="http://www.w3.org/1999/xlink">
    <title>acs_chem_bio_logo</title>
    <g id="Symbols" stroke="none" stroke-width="1" fill="none" fill-rule="evenodd">
        <g id="Combined-Shape">
            <path d="M111.9477,2.5727 L111.9867,26.4907 C111.9867,28.0077 113.3127,29.4217 115.0787,29.4217 L115.0787,29.4217 L116.8857,29.4217 L116.8857,32.1117 L114.4767,32.1117 C112.9107,32.1117 111.5457,31.5587 110.4607,30.4217 C109.3767,29.2847 108.8147,28.0427 108.8147,26.6637 L108.8147,26.6637 L108.8147,2.5727 L111.9477,2.5727 Z M91.1567,16.0087 L91.1567,18.6977 L88.4337,18.6977 C86.9337,18.6977 85.6757,19.2157 84.5937,20.2837 C83.5467,21.3177 83.0237,22.5597 83.0237,24.0427 C83.0237,25.5257 83.5467,26.7657 84.5937,27.8357 C85.6757,28.9057 86.9337,29.4217 88.4337,29.4217 L88.4337,29.4217 L91.1567,29.4217 L91.1567,32.1117 L88.4337,32.1117 C86.1997,32.1117 84.2797,31.3187 82.6737,29.7327 C81.1027,28.1467 80.2997,26.2497 80.2997,24.0427 C80.2997,21.8357 81.1027,19.9387 82.6737,18.3877 C84.2797,16.8017 86.1997,16.0087 88.4337,16.0087 L88.4337,16.0087 L91.1567,16.0087 Z M79.321,16.009 L79.321,32.112 L76.598,32.112 L76.598,16.009 L79.321,16.009 Z M55.686,15.8356 C57.817,15.8356 59.701,16.5596 61.273,17.9736 C62.878,16.6976 64.659,16.0426 66.614,16.0426 C68.814,16.0426 70.698,16.8016 72.304,18.3536 C73.946,19.9046 74.748,21.7326 74.748,23.9046 L74.748,23.9046 L74.748,32.1116 L72.025,32.1116 L72.025,24.2496 C72.025,22.7316 71.502,21.4226 70.455,20.3526 C69.407,19.2846 68.115,18.7326 66.579,18.7326 C65.287,18.7326 64.066,19.1806 62.948,20.0766 C63.611,21.4556 63.926,22.7666 63.926,23.9736 L63.926,23.9736 L63.926,32.1116 L61.168,32.1116 L61.168,23.9736 C61.168,22.6286 60.609,21.3876 59.456,20.2496 C58.304,19.1116 57.048,18.5256 55.686,18.5256 C54.673,18.5256 53.661,18.9046 52.579,19.6286 L52.579,19.6286 L52.579,32.1116 L49.855,32.1116 L49.855,18.0776 C50.973,17.2836 51.881,16.7666 52.579,16.4566 C53.521,16.0426 54.569,15.8356 55.686,15.8356 Z M41.2677,15.6976 C43.6757,15.6976 45.5617,16.4566 46.9937,18.0076 C48.4247,19.5596 49.1577,21.5256 49.1577,23.9046 L49.1577,23.9046 L49.1577,25.1806 L39.7467,25.1806 L39.7467,22.4216 L46.1197,22.4216 C45.6317,19.7666 44.0257,18.4226 41.3367,18.4226 C39.7657,18.4226 38.3697,18.9386 37.1467,20.0086 C35.9247,21.0776 35.3327,22.3526 35.3327,23.9046 C35.3327,25.2836 35.8907,26.5246 37.0417,27.6626 C38.1947,28.8006 39.4867,29.3536 40.8827,29.3536 L40.8827,29.3536 L48.0047,29.3536 L48.0047,32.1116 L40.8827,32.1116 C38.5787,32.1116 36.6227,31.3186 34.9827,29.6986 C33.3417,28.0766 32.5387,26.1466 32.5387,23.9046 C32.5387,21.5256 33.3767,19.5596 35.0527,18.0076 C36.7637,16.4566 38.8227,15.6976 41.2677,15.6976 Z M20.214,0.0465 L20.249,16.5945 C21.192,16.0785 22.344,15.8365 23.636,15.8365 C25.94,15.8365 27.825,16.6295 29.327,18.1805 C30.827,19.7325 31.561,21.6635 31.561,23.9745 L31.561,23.9745 L31.561,32.1115 L28.803,32.1115 L28.803,23.9745 C28.803,22.5595 28.28,21.2855 27.267,20.1815 C26.254,19.0785 24.997,18.5255 23.566,18.5255 C22.414,18.5255 21.296,18.9045 20.214,19.6295 L20.214,19.6295 L20.214,32.1115 L17.492,32.1115 L17.456,0.0465 L20.214,0.0465 Z M16.4096,16.0087 L16.4096,18.6977 L13.6856,18.6977 C12.1856,18.6977 10.9276,19.2157 9.8456,20.2837 C8.7986,21.3177 8.2746,22.5597 8.2746,24.0427 C8.2746,25.5257 8.7986,26.7657 9.8456,27.8357 C10.9276,28.9057 12.1856,29.4217 13.6856,29.4217 L13.6856,29.4217 L16.4096,29.4217 L16.4096,32.1117 L13.6856,32.1117 C11.4516,32.1117 9.5306,31.3187 7.9246,29.7327 C6.3546,28.1467 5.5516,26.2497 5.5516,24.0427 C5.5516,21.8357 6.3546,19.9387 7.9246,18.3877 C9.5306,16.8017 11.4516,16.0087 13.6856,16.0087 L13.6856,16.0087 L16.4096,16.0087 Z M98.9418,15.8356 C101.2118,15.8356 103.1318,16.6286 104.7378,18.2496 C106.3788,19.8356 107.1838,21.7316 107.1838,23.9736 L107.1838,23.9736 L107.1838,32.1106 L98.9418,32.1106 C96.6728,32.1106 94.7528,31.3186 93.1478,29.7316 C91.5418,28.1116 90.7378,26.2146 90.7378,23.9736 C90.7378,21.7316 91.5418,19.8356 93.1478,18.2496 C94.7528,16.6286 96.6728,15.8356 98.9418,15.8356 Z M98.9418,18.5246 C97.5468,18.5246 96.2898,19.0766 95.1728,20.1446 C94.0548,21.2146 93.4968,22.4556 93.4968,23.8346 C93.4968,25.2486 94.0548,26.5246 95.1378,27.6636 C96.2558,28.8006 97.5108,29.3866 98.9418,29.3866 L98.9418,29.3866 L104.4238,29.3866 L104.4238,23.9736 C104.4238,22.6286 103.8648,21.3866 102.7138,20.2486 C101.5608,19.1106 100.3038,18.5246 98.9418,18.5246 Z M79.392,8.599 L79.392,11.357 L76.529,11.357 L76.529,8.599 L79.392,8.599 Z" fill="#009690"></path>
            <path d="M79.8987,31.7769 L82.7617,31.8109 L82.7617,39.3979 C82.7617,41.0869 83.2847,42.5359 84.2967,43.6729 C85.3437,44.8109 86.7407,45.3629 88.4507,45.3629 L88.4507,45.3629 L90.0917,45.3629 L90.0567,31.8109 L92.8867,31.8109 L92.8867,48.4669 C92.8867,50.7759 91.9777,52.7409 90.1267,54.2939 C88.4177,55.7759 86.3567,56.4999 83.9477,56.4999 L83.9477,56.4999 L82.3417,56.4999 C81.7715889,56.4734556 81.3279099,56.467579 80.9951362,56.4662731 L80.7367,56.4659 L80.7367,53.8449 L84.2607,53.8449 C86.0077,53.8449 87.3687,53.2939 88.3817,52.1899 C89.3257,51.1549 89.8477,49.7429 89.9877,47.9829 L89.9877,47.9829 L88.4507,47.9829 C86.0427,47.9829 83.9817,47.1909 82.3417,45.5689 C80.7007,43.9499 79.8987,41.9499 79.8987,39.5699 L79.8987,39.5699 L79.8987,31.7769 Z M78.4318,46.7767 C78.3268,49.0857 77.5238,51.0177 76.0218,52.5687 C74.4508,54.1217 72.4958,54.9127 70.1568,54.9127 L70.1568,54.9127 L61.9168,54.9127 L61.9168,52.2247 L70.1568,52.2247 C73.3338,52.2247 75.4988,49.9487 75.6738,46.7767 L75.6738,46.7767 Z M53.853,31.5356 C56.087,31.5356 58.041,32.3296 59.683,33.9486 C60.9774191,35.1997688 61.7713847,36.6161649 62.0658181,38.2129907 C62.382866,36.7108121 63.1256368,35.3770668 64.2918,34.2247 C65.9328,32.6057 67.8868,31.8107 70.1568,31.8107 L70.1568,31.8107 L78.4318,31.8107 L78.4318,39.9837 C78.4318,42.2247 77.6288,44.1557 75.9868,45.7417 C74.3808,47.3287 72.4258,48.1227 70.1218,48.1227 C67.8528,48.1227 65.8968,47.3287 64.2918,45.7417 C63.0624939,44.5277029 62.3036715,43.1115677 62.0153327,41.5089913 C61.700546,43.0804833 60.9574175,44.4685029 59.788,45.6736 C58.182,47.2936 56.192,48.1226 53.853,48.1226 C51.548,48.1226 49.559,47.3276 47.917,45.7076 C46.277,44.0876 45.438,42.1216 45.438,39.8466 C45.438,37.5356 46.242,35.6036 47.883,33.9826 C49.523,32.3636 51.514,31.5356 53.853,31.5356 Z M30.601,31.5356 C32.835,31.5356 34.79,32.3296 36.432,33.9486 C38.106,35.5686 38.945,37.4656 38.945,39.6726 C38.945,42.0186 38.142,44.0186 36.536,45.6736 C34.93,47.2936 32.94,48.1226 30.601,48.1226 C28.296,48.1226 26.307,47.3276 24.665,45.7076 C23.025,44.0876 22.186,42.1216 22.186,39.8466 C22.186,37.5356 22.989,35.6036 24.63,33.9826 C26.271,32.3636 28.261,31.5356 30.601,31.5356 Z M2.8808,25.1299 L2.8808,31.8109 L8.3618,31.8109 C10.6318,31.8109 12.5518,32.6049 14.1928,34.2249 C15.8338,35.8109 16.6368,37.7079 16.6368,39.9499 C16.6368,42.1899 15.8338,44.1219 14.1928,45.7079 C12.5868,47.2939 10.6318,48.0859 8.3618,48.0859 C6.0928,48.0859 4.1378,47.2939 2.4968,45.7079 C0.8908,44.1219 0.0868,42.1899 0.0868,39.9499 L0.0868,39.9499 L0.0868,25.1299 L2.8808,25.1299 Z M42.4706,25.1295 L42.5056,42.2935 C42.5056,43.8105 43.6586,45.2245 45.1936,45.2245 L45.1936,45.2245 L46.7646,45.2245 L46.7646,47.9145 L44.6696,47.9145 C43.3086,47.9145 42.1216,47.3625 41.1786,46.2245 C40.2366,45.0855 39.7466,43.8445 39.7466,42.4665 L39.7466,42.4665 L39.7466,25.1295 L42.4706,25.1295 Z M20.197,31.811 L20.197,47.913 L17.509,47.913 L17.509,31.811 L20.197,31.811 Z M8.3618,34.4999 L2.8808,34.4999 L2.8808,39.9499 C2.8808,41.2939 3.4398,42.5699 4.5908,43.7079 C5.7438,44.8449 7.0008,45.3969 8.3618,45.3969 C9.7248,45.3969 10.9798,44.8449 12.1328,43.7079 C13.2848,42.5699 13.8788,41.2939 13.8788,39.9499 C13.8788,38.6039 13.2848,37.3639 12.1328,36.2249 C10.9798,35.0879 9.7248,34.4999 8.3618,34.4999 L8.3618,34.4999 Z M75.6738,34.5357 L70.1568,34.5357 C68.7948,34.5357 67.5038,35.0877 66.3518,36.2257 C65.1998,37.3637 64.6408,38.6037 64.6408,39.9497 C64.6408,41.2937 65.1998,42.5697 66.3518,43.7077 C67.5038,44.8457 68.7948,45.3967 70.1568,45.3967 C71.5188,45.3967 72.7758,44.8457 73.9278,43.7077 C75.0808,42.5697 75.6738,41.3297 75.6738,39.9837 L75.6738,39.9837 L75.6738,34.5357 Z M53.853,34.2936 C52.282,34.2936 50.955,34.8456 49.872,35.9146 C48.79,36.9826 48.231,38.2936 48.231,39.8466 C48.231,41.3976 48.79,42.7076 49.872,43.7766 C50.955,44.8446 52.282,45.3626 53.853,45.3626 C55.354,45.3626 56.646,44.8106 57.728,43.7416 C58.845,42.6726 59.404,41.3976 59.404,39.9146 C59.404,38.3636 58.88,37.0176 57.798,35.9486 C56.715,34.8456 55.424,34.2936 53.853,34.2936 Z M30.601,34.2936 C29.03,34.2936 27.703,34.8456 26.62,35.9146 C25.539,36.9826 24.979,38.2936 24.979,39.8466 C24.979,41.3976 25.539,42.7076 26.62,43.7766 C27.703,44.8446 29.03,45.3626 30.601,45.3626 C32.102,45.3626 33.394,44.8106 34.476,43.7416 C35.593,42.6726 36.152,41.3976 36.152,39.9146 C36.152,38.3636 35.629,37.0176 34.545,35.9486 C33.463,34.8456 32.172,34.2936 30.601,34.2936 Z M36.5598,14.6395 C35.0638,14.6395 33.7768,14.1295 32.7018,13.1085 C31.8045972,12.2368829 31.2812578,11.2212484 31.1466696,10.0597355 L31.1479,14.6398 L29.2729,14.6398 L29.2729,11.8008 L25.5229,11.8008 L25.5229,14.6398 L23.6469,14.6398 L23.6469,7.5588 C23.6679,6.5868 24.0189,5.7688 24.7409,5.0818 C25.4759,4.3858 26.3669,4.0288 27.4139,4.0288 C28.4139,4.0288 29.2889,4.3708 30.0239,5.0668 C30.7739,5.7658 31.1479,6.5808 31.1479,7.5308 C31.1479,7.5528 31.1439,7.5728 31.1429,7.5928 L31.1429,7.5928 L31.1479,7.5928 L31.1466696,8.83165888 C31.2812578,7.67097699 31.8045972,6.65750148 32.7018,5.8055 C33.7768,4.7845 35.0638,4.2745 36.5598,4.2745 L38.3828,4.2745 L38.3828,6.0045 L36.5598,6.0045 C35.5538,6.0045 34.7118,6.3385 33.9878,7.0265 C33.2868,7.6925 32.9348,8.4925 32.9348,9.4455 C32.9348,10.3995 33.2868,11.1995 33.9878,11.8875 C34.7118,12.5745 35.5538,12.9085 36.5598,12.9085 L38.3828,12.9085 L38.3828,12.9088 L41.5437,12.9095 C42.22245,12.9095 42.779032,12.3619414 42.8459534,11.7092986 L42.8527,11.5775 C42.8527,11.0435 42.6187,10.6885 42.1747,10.5345 C41.7307,10.4445 41.2627,10.3555 40.7957,10.2665 C39.2987,9.9125 38.3177,8.7355 38.3177,7.2925 C38.3177,6.4945 38.6207,5.7845 39.2527,5.1845 C39.8837,4.5855 40.6087,4.2745 41.4267,4.2745 L41.4267,4.2745 L44.0677,4.2745 L44.0677,5.9835 L41.5437,5.9835 C40.8187,5.9835 40.1637,6.5825 40.1637,7.2705 C40.1637,7.7815 40.3987,8.1815 40.8427,8.4695 C40.9117,8.5135 41.2857,8.5805 42.0107,8.6465 C42.7357,8.7135 43.3667,9.0465 43.9047,9.6455 C44.4427,10.2445 44.6997,10.8885 44.6997,11.5985 C44.6997,12.3755 44.4187,13.0865 43.8577,13.7075 C43.3197,14.3285 42.6427,14.6395 41.8237,14.6395 L41.8237,14.6395 L36.5598,14.6395 Z M27.4099,5.9328 C26.8799,5.9328 26.4329,6.1108 26.0689,6.4568 C25.7129,6.7948 25.5319,7.2108 25.5229,7.6958 L25.5229,7.6958 L25.5229,9.9598 L29.2729,9.9598 L29.2729,7.7128 C29.2629,7.2278 29.0929,6.8048 28.7389,6.4688 C28.3739,6.1108 27.9399,5.9328 27.4099,5.9328 Z" fill="#BFD730"></path>
        </g>
    </g>
</svg>