<?xml version="1.0" encoding="UTF-8"?>
<svg width="150px" height="150px" viewBox="0 0 150 150" version="1.1" xmlns="http://www.w3.org/2000/svg" xmlns:xlink="http://www.w3.org/1999/xlink">
    <title>Group 8</title>
    <g id="website-design" stroke="none" stroke-width="1" fill="none" fill-rule="evenodd">
        <g id="Group-8">
            <rect id="Rectangle" fill-opacity="0" fill="#FFFFFF" x="0" y="0" width="150" height="150"></rect>
            <g id="Group-376" transform="translate(21.000000, 21.000000)">
                <path d="M17.5,67.5 L17.5,101.5 L1.5,101.5 L1.5,67.5 L17.5,67.5 Z" id="Stroke-1283-Copy" stroke="#FFFFFF" stroke-width="3" fill="#FF7C00"></path>
                <path d="M92.4847554,25.328601 C93.643317,28.9588484 93.7474964,33.5361312 93.1349839,37.9102669 C92.3819745,43.2877335 90.5489898,48.4125077 88.0300323,51.0647041 C85.4678611,53.7624 81.9297588,55.9860627 78.5272798,55.41349 C75.9264583,54.9758211 73.5775723,52.8122142 71.8087994,48.3931913 C67.9697019,45.4912797 66.5,43.1260461 66.5,40.8161771 C66.5,37.9926883 68.5888973,35.4571334 71.247882,33.6849075 C74.3278578,31.6329412 77.4782245,30.8436175 80.7330651,30.0025339 C84.4909389,29.0314614 88.3803783,28.0067228 92.4847554,25.328601 Z" id="Stroke-1280-Copy" stroke="#FFFFFF" stroke-width="3" fill="#96E1FF"></path>
                <path d="M22.8968734,2.32967148 C28.0345193,6.09840164 33.6220046,7.78146737 38.9111129,9.34693802 C44.5677865,11.0212007 49.8899116,12.510178 53.6609097,16.8828844 C56.7654869,20.4770566 59.2453902,24.6989772 58.3053324,28.7714928 C57.5713693,31.9511653 54.7091727,34.8744823 48.9352111,37.3519286 C48.75407,37.4296512 48.5745855,37.5049945 48.3975035,37.5784444 C48.3215793,37.7534028 48.2429978,37.930034 48.1617326,38.1083533 C46.8690632,40.9448412 45.4532549,42.9886289 43.93741,44.3601097 C42.427903,45.7258562 40.8342732,46.3901047 39.2090866,46.4871451 C34.8219559,46.749102 30.3868257,43.2062028 26.9004914,39.1697654 C23.5465336,35.2796692 21.3298028,28.0121727 20.6879807,20.4619422 C20.1422419,14.0420117 20.7391671,7.37765926 22.8968734,2.32967148 Z" id="Stroke-1281-Copy" stroke="#FFFFFF" stroke-width="3" fill="#96E1FF"></path>
                <path d="M70.4162108,32.4365794 C64.7316501,36.2253661 61.8043846,43.1423788 70.4162108,48.9505934 C75.1376068,60.7463177 83.9194033,57.5709087 89.1176603,52.0976926 C94.3159173,46.6244766 97.0354413,31.3560911 93.192225,23 C84.8920109,29.2517339 77.4983048,27.7182897 70.4162108,32.4365794 L70.4162108,32.4365794 Z" id="Stroke-1280" stroke="#003264" stroke-width="2" stroke-linecap="round" stroke-linejoin="round"></path>
                <path d="M54.796063,15.9023607 C60.9603448,23.0387557 64.2162279,32.427517 49.5266732,38.7303961 C42.7959439,53.4995496 32.5713283,48.0301865 25.7644381,40.1492463 C18.9575478,32.254258 16.3585533,11.1494466 22.3514728,0 C33.3995793,9.20145427 47.099041,6.97718415 54.796063,15.9023607 L54.796063,15.9023607 Z" id="Stroke-1281" stroke="#003264" stroke-width="2" stroke-linecap="round" stroke-linejoin="round"></path>
                <path d="M83,39.5173745 C68.7859532,46.4671815 61.6789298,65 61.6789298,65 C61.6789298,65 55.690078,37.8494208 32,17" id="Stroke-1282" stroke="#003264" stroke-width="2" stroke-linecap="round" stroke-linejoin="round"></path>
                <polygon id="Stroke-1283" stroke="#003264" stroke-width="2" stroke-linejoin="round" points="0 103 19 103 19 66 0 66"></polygon>
                <path d="M19,96.3248116 C69.2568947,113.418189 50.7214737,113.590222 108,84.3780842 C103.020684,79.3031144 99.0859474,78.103663 93.9473684,79.5993933 L73.1775789,86.6288476" id="Stroke-1284" stroke="#003264" stroke-width="2" stroke-linecap="round" stroke-linejoin="round"></path>
                <path d="M19,70 L33.108895,70 C44.1749717,70 51.920755,77.125 54.2722375,79.5 L68.3811326,79.5 C75.8729558,79.5 75.8729558,89 68.3811326,89 L42.514825,89" id="Stroke-1285" stroke="#003264" stroke-width="2" stroke-linecap="round" stroke-linejoin="round"></path>
            </g>
        </g>
    </g>
</svg>