<?xml version="1.0" encoding="UTF-8"?>
<svg width="292px" height="292px" viewBox="0 0 292 292" version="1.1" xmlns="http://www.w3.org/2000/svg" xmlns:xlink="http://www.w3.org/1999/xlink">
    <title>icon_check_circle@1x</title>
    <g id="Symbols" stroke="none" stroke-width="1" fill="none" fill-rule="evenodd">
        <g id="icon_check_circle" fill="#82AD53" fill-rule="nonzero">
            <g id="Combined-Shape">
                <path d="M146,0.5 C226.37322,0.5 291.5,65.6267796 291.5,146 C291.5,226.37322 226.37322,291.5 146,291.5 C65.6267796,291.5 0.5,226.37322 0.5,146 C0.5,65.6267796 65.6267796,0.5 146,0.5 Z M146,17.5 C75.0156204,17.5 17.5,75.0156204 17.5,146 C17.5,216.98438 75.0156204,274.5 146,274.5 C216.98438,274.5 274.5,216.98438 274.5,146 C274.5,75.0156204 216.98438,17.5 146,17.5 Z M221.141633,94.2314249 C224.806516,97.0153912 225.578499,102.195298 222.931502,105.919932 L222.768575,106.141633 L139.968575,215.141633 C136.69214,219.454815 130.295202,219.6299 126.780445,215.571534 L126.598152,215.354026 L77.3981517,154.68736 C74.4412046,151.04126 74.9998734,145.688432 78.6459736,142.731485 C82.2205816,139.832517 87.4356425,140.31265 90.4251777,143.768395 L90.6018483,143.979307 L132.981,196.236 L209.231425,95.8583668 C212.071071,92.120186 217.403452,91.3917794 221.141633,94.2314249 Z"></path>
            </g>
        </g>
    </g>
</svg>