<?xml version="1.0" encoding="UTF-8"?>
<svg width="291px" height="291px" viewBox="0 0 291 291" version="1.1" xmlns="http://www.w3.org/2000/svg" xmlns:xlink="http://www.w3.org/1999/xlink">
    <title>icon_x_circle@1x</title>
    <g id="Symbols" stroke="none" stroke-width="1" fill="none" fill-rule="evenodd">
        <g id="Combined-Shape" fill="#E02020">
            <path d="M145.5,0.5 C225.59664,0.5 290.5,65.390382 290.5,145.472705 C290.5,225.558684 225.621641,290.441995 145.521148,290.5 C65.3873278,290.442004 0.5,225.567651 0.5,145.472705 C0.5,65.390382 65.4033601,0.5 145.5,0.5 Z M145.5,17.5 C74.7914399,17.5 17.5,74.7799839 17.5,145.472705 C17.5,216.180099 74.7801524,273.448798 145.521144,273.5 C216.227763,273.448794 273.5,216.172185 273.5,145.472705 C273.5,74.7799839 216.20856,17.5 145.5,17.5 Z M89.8046337,77.7905079 L90.0104076,77.9895924 L145.5,133.479 L200.989592,77.9895924 C204.309049,74.6701359 209.690951,74.6701359 213.010408,77.9895924 C216.26212,81.2413048 216.328482,86.4721407 213.209492,89.8046337 L213.010408,90.0104076 L157.521,145.5 L213.010408,200.989592 C216.329864,204.309049 216.329864,209.690951 213.010408,213.010408 C209.758695,216.26212 204.527859,216.328482 201.195366,213.209492 L200.989592,213.010408 L145.5,157.521 L90.0104076,213.010408 C86.6909512,216.329864 81.3090488,216.329864 77.9895924,213.010408 C74.7378799,209.758695 74.6715184,204.527859 77.7905079,201.195366 L77.9895924,200.989592 L133.479,145.5 L77.9895924,90.0104076 C74.6701359,86.6909512 74.6701359,81.3090488 77.9895924,77.9895924 C81.2413048,74.7378799 86.4721407,74.6715184 89.8046337,77.7905079 Z"></path>
        </g>
    </g>
</svg>