<?xml version="1.0" encoding="UTF-8"?>
<svg width="47px" height="62px" viewBox="0 0 47 62" version="1.1" xmlns="http://www.w3.org/2000/svg" xmlns:xlink="http://www.w3.org/1999/xlink">
    <title>icon_paper</title>
    <g id="icon_paper" stroke="none" stroke-width="1" fill="none" fill-rule="evenodd">
        <g fill="#000000" fill-rule="nonzero">
            <path d="M30.1,0 L9.3,0 C8.58202983,0 8,0.575633893 8,1.28571429 L8,52.7142857 C8,53.4243661 8.58202983,54 9.3,54 L45.7,54 C46.4179702,54 47,53.4243661 47,52.7142857 L47,16.7142857 C47,16.3732931 46.8630361,16.0462666 46.6192388,15.8051484 L31.0192388,0.376576996 C30.7754415,0.135458795 30.4447814,0 30.1,0 Z M29.5618,2.57142857 L44.4,17.2465714 L44.4,51.4285714 L10.6,51.4285714 L10.6,2.57142857 L29.5618,2.57142857 Z" id="Stroke-343"></path>
            <path d="M30.2857143,0 C30.9168969,0 31.4418501,0.454821841 31.550714,1.05460552 L31.5714286,1.28571429 L31.5714286,15.4285714 L45.7142857,15.4285714 C46.3454683,15.4285714 46.8704215,15.8833933 46.9792854,16.4831769 L47,16.7142857 C47,17.3454683 46.5451782,17.8704215 45.9453945,17.9792854 L45.7142857,18 L30.2857143,18 C29.6545317,18 29.1295785,17.5451782 29.0207146,16.9453945 L29,16.7142857 L29,1.28571429 C29,0.575633893 29.5756339,0 30.2857143,0 Z" id="Stroke-344"></path>
            <path d="M9.1,8 C9.81797017,8 10.4,8.57563389 10.4,9.28571429 C10.4,9.91689686 9.94012458,10.4418501 9.33367664,10.550714 L9.1,10.5714286 L2.6,10.5714286 L2.6,59.4285714 L36.4,59.4285714 L36.4,53 C36.4,52.3688174 36.8598754,51.8438642 37.4663234,51.7350003 L37.7,51.7142857 C38.3381957,51.7142857 38.8689818,52.1691076 38.9790553,52.7688912 L39,53 L39,60.7142857 C39,61.3454683 38.5401246,61.8704215 37.9336766,61.9792854 L37.7,62 L1.3,62 C0.661804289,62 0.131018237,61.5451782 0.0209447405,60.9453945 L0,60.7142857 L0,9.28571429 C0,8.65453171 0.459875417,8.12957848 1.06632336,8.02071458 L1.3,8 L9.1,8 Z" id="Stroke-345"></path>
        </g>
    </g>
</svg>