<?xml version="1.0" encoding="UTF-8"?>
<svg width="190px" height="57px" viewBox="0 0 190 57" version="1.1" xmlns="http://www.w3.org/2000/svg" xmlns:xlink="http://www.w3.org/1999/xlink">
    <title>erisyon_logo_reverse</title>
    <g id="Symbols" stroke="none" stroke-width="1" fill="none" fill-rule="evenodd">
        <g id="footer2" transform="translate(-100.000000, -62.000000)">
            <g id="Group-28" transform="translate(100.000000, 60.000000)">
                <polygon id="Fill-2" fill="#CBCBCB" points="86.9457143 58.2208321 80.3285714 58.2208321 81.3857143 52.2527231 88.0028571 52.2527231"></polygon>
                <polygon id="Fill-3" fill="#CBCBCB" points="122.127143 58.2208321 115.51 58.2208321 116.567143 52.2527231 123.184286 52.2527231"></polygon>
                <polygon id="Fill-4" fill="#929292" points="78.5807143 58.2208321 71.9635714 58.2208321 73.0207143 52.2527231 79.6378571 52.2527231"></polygon>
                <polygon id="Fill-5" fill="#929292" points="183.335286 58.2208321 176.718143 58.2208321 177.775286 52.2527231 184.392429 52.2527231"></polygon>
                <polygon id="Fill-6" fill="#CBCBCB" points="58.3115714 58.2208321 51.6944286 58.2208321 52.7515714 52.2527231 59.3687143 52.2527231"></polygon>
                <polygon id="Fill-7" fill="#CBCBCB" points="8.01857143 58.2208321 1.40142857 58.2208321 2.45857143 52.2527231 9.07571429 52.2527231"></polygon>
                <polygon id="Fill-8" fill="#FF7C00" points="46.7741429 58.2208321 40.1584286 58.2208321 41.2141429 52.2527231 47.8312857 52.2527231"></polygon>
                <polygon id="Fill-9" fill="#FF7C00" points="140.560429 58.2208321 133.943286 58.2208321 135.000429 52.2527231 141.617571 52.2527231"></polygon>
                <polygon id="Fill-10" fill="#FF7C00" points="174.494571 58.2208321 167.877429 58.2208321 168.934571 52.2527231 175.551714 52.2527231"></polygon>
                <g id="Group-27" transform="translate(0.714286, 0.794615)" fill="#FFFFFF">
                    <path d="M22.0685714,26.5847449 C22.1071429,26.3117128 22.1371429,26.0572641 22.1571429,25.8242577 C22.1757143,25.5898218 22.1857143,25.3553859 22.1857143,25.12095 C22.1857143,23.5985462 21.65,22.3120077 20.5771429,21.2570462 C19.5042857,20.2049436 17.9928571,19.6788923 16.0442857,19.6788923 C14.8357143,19.6788923 13.7428571,19.8918859 12.7685714,20.3221615 C11.7942857,20.7524372 10.9471429,21.3085077 10.2257143,21.9903731 C9.50285714,22.6736679 8.90857143,23.4241487 8.44142857,24.2432449 C7.97428571,25.0637705 7.66142857,25.842841 7.50571429,26.5847449 L22.0685714,26.5847449 Z M6.86142857,31.4993218 C6.82285714,31.6951615 6.80285714,31.9095846 6.80285714,32.1440205 C6.80285714,33.0803346 6.98714286,33.9394564 7.36,34.7185269 C7.73,35.4990269 8.24571429,36.1723154 8.90857143,36.7383923 C9.57285714,37.3044692 10.3514286,37.7518987 11.2485714,38.0835397 C12.1457143,38.4151808 13.12,38.5824308 14.1742857,38.5824308 C15.9671429,38.5824308 17.4971429,38.2507897 18.7642857,37.5860782 C20.03,36.9227962 21.1714286,36.0265077 22.1857143,34.8943538 L26.1042857,38.5824308 C22.6342857,42.3276872 18.4042857,44.1988859 13.4128571,44.1988859 C11.5028571,44.1988859 9.74714286,43.9158474 8.14857143,43.3512 C6.55,42.7865526 5.16571429,41.9760333 3.99714286,40.9225013 C2.82571429,39.8689692 1.91142857,38.5724244 1.24714286,37.0314372 C0.584285714,35.4890205 0.252857143,33.7236038 0.252857143,31.7351872 C0.252857143,29.3150654 0.662857143,27.0621936 1.48142857,24.9751423 C2.3,22.888091 3.44142857,21.0640654 4.90285714,19.5030654 C6.36571429,17.9420654 8.1,16.7227128 10.1085714,15.8450077 C12.1157143,14.9673026 14.3085714,14.5270205 16.6871429,14.5270205 C18.3628571,14.5270205 19.9142857,14.7614564 21.3371429,15.2303282 C22.76,15.6992 24,16.4010782 25.0514286,17.3373923 C26.1042857,18.2737064 26.9228571,19.4444564 27.5085714,20.8482128 C28.0928571,22.2533987 28.3857143,23.891591 28.3857143,25.7656487 C28.3857143,26.3889051 28.3271429,27.2580333 28.21,28.3687449 C28.0928571,29.4808859 27.9185714,30.525841 27.6842857,31.4993218 L6.86142857,31.4993218 Z" id="Fill-11"></path>
                    <path d="M42.681,19.9706506 C43.6552857,18.3324583 44.8052857,17.0159006 46.131,16.0195481 C47.4567143,15.0260545 49.0567143,14.5271635 50.9267143,14.5271635 C51.1995714,14.5271635 51.4924286,14.5385994 51.8052857,14.5571827 C52.1152857,14.578625 52.3895714,14.6257981 52.6238571,14.7029904 L51.6881429,21.0827917 C51.2581429,20.9655737 50.8767143,20.8883814 50.5467143,20.8483558 C50.2152857,20.8111891 49.8938571,20.7897468 49.5824286,20.7897468 C47.9824286,20.7897468 46.6767143,21.0827917 45.6638571,21.6674519 C44.6495714,22.2535417 43.831,22.9554199 43.2067143,23.774516 C42.5838571,24.5936122 42.1338571,25.4341506 41.8624286,26.2918429 C41.5881429,27.1495353 41.4124286,27.8328301 41.3367143,28.3388686 L38.7038571,43.3799327 L31.861,43.3799327 L35.7795714,21.3157981 C35.9338571,20.5767532 36.101,19.6204263 36.2767143,18.4496763 C36.4524286,17.2789263 36.5781429,16.2253942 36.6567143,15.2890801 L43.0895714,15.2890801 C43.0895714,15.4834904 43.0695714,15.7765353 43.031,16.1667853 C42.9924286,16.5570353 42.9438571,16.9858814 42.8852857,17.4533237 C42.8281429,17.9221955 42.7695714,18.3824904 42.711,18.8299199 C42.651,19.2787788 42.601,19.6590224 42.5638571,19.9706506 L42.681,19.9706506 Z" id="Fill-13"></path>
                    <path d="M72.1131429,35.3041878 C72.6988571,36.4363417 73.566,37.3040404 74.716,37.9087135 C75.866,38.5133865 77.1431429,38.8150083 78.5474286,38.8150083 C80.146,38.8150083 81.4231429,38.5033801 82.3788571,37.8801237 C83.3331429,37.2554378 83.8102857,36.3977455 83.8102857,35.3041878 C83.8102857,34.2906814 83.4317143,33.5402006 82.6717143,33.051316 C81.9102857,32.5638609 80.6917143,32.047816 79.0145714,31.5003224 C77.6888571,31.0714763 76.5302857,30.6311942 75.536,30.1837647 C74.5402857,29.7349058 73.7117143,29.207425 73.0488571,28.6041814 C72.3845714,27.9995083 71.8888571,27.3062071 71.5574286,26.5257071 C71.226,25.7452071 71.0617143,24.8289058 71.0617143,23.7753737 C71.0617143,22.408784 71.3717143,21.1608417 71.9974286,20.0286878 C72.6188571,18.8979635 73.4774286,17.9230532 74.5702857,17.1039571 C75.6617143,16.2834314 76.9488571,15.6501686 78.4302857,15.2013096 C79.9117143,14.7524506 81.5302857,14.5280212 83.2845714,14.5280212 C85.4688571,14.5280212 87.446,14.9282776 89.2217143,15.7287904 C90.9945714,16.5278737 92.3874286,17.7472263 93.4031429,19.3854186 L88.0817143,22.5460147 C87.5731429,21.7655147 86.9102857,21.1122391 86.0917143,20.5847583 C85.2731429,20.0587071 84.1631429,19.7942519 82.7588571,19.7942519 C82.1731429,19.7942519 81.5788571,19.8528609 80.9745714,19.9700788 C80.3688571,20.0872968 79.8331429,20.2731301 79.366,20.5261494 C78.8988571,20.7820276 78.5174286,21.1222455 78.2245714,21.5510917 C77.9331429,21.9813673 77.7874286,22.5074186 77.7874286,23.130675 C77.7874286,24.0283929 78.166,24.691675 78.9274286,25.1205212 C79.6874286,25.5507968 80.8088571,25.9796429 82.2902857,26.4084891 C84.9017143,27.1503929 86.9302857,28.1553224 88.3731429,29.4232776 C89.816,30.6898032 90.536,32.4952455 90.536,34.8367455 C90.536,36.3977455 90.206,37.7729122 89.5431429,38.9622455 C88.8788571,40.1530083 87.9931429,41.1565083 86.8817143,41.9756045 C85.7717143,42.7947006 84.4831429,43.4093801 83.0217143,43.8196429 C81.5588571,44.2284763 80.0088571,44.4343224 78.3717143,44.4343224 C75.3302857,44.4343224 72.8831429,43.8982647 71.0317143,42.8247199 C69.1788571,41.7526045 67.766,40.416034 66.7902857,38.8150083 L72.1131429,35.3041878 Z" id="Fill-15"></path>
                    <path d="M95.6482857,57.4262167 L91.374,57.4262167 L92.4297143,51.4581077 L95.5325714,51.4566782 C96.8182857,51.4566782 97.8211429,51.0950179 98.544,50.3731269 C99.2654286,49.6526654 100.055429,48.5491013 100.914,47.0681526 L103.018286,43.4386846 L96.7011429,15.2877936 L104.071143,15.2877936 L107.698286,35.8895628 L107.815429,35.8895628 L119.044,15.2877936 L126.295429,15.2877936 L106.409714,49.4682615 C105.708286,50.7162038 105.006857,51.8369218 104.305429,52.8318449 C103.602571,53.8267679 102.832571,54.6644474 101.994,55.3491718 C101.155429,56.0310372 100.229714,56.5485115 99.2168571,56.9001654 C98.2025714,57.2503897 97.014,57.4262167 95.6482857,57.4262167" id="Fill-17"></path>
                    <path d="M149.296429,27.4265699 C149.296429,25.3123583 148.653571,23.5712429 147.365,22.2017942 C146.079286,20.8323455 144.325,20.1461917 142.102143,20.1461917 C140.620714,20.1461917 139.285,20.4492429 138.096429,21.056775 C136.906429,21.6643071 135.892143,22.4748263 135.055,23.4926212 C134.215,24.5118455 133.562143,25.6854545 133.095,27.0163071 C132.626429,28.3485891 132.393571,29.756634 132.393571,31.2433006 C132.393571,33.3575122 133.016429,35.0986276 134.265,36.4680763 C135.513571,37.837525 137.266429,38.5236788 139.529286,38.5236788 C141.009286,38.5236788 142.356429,38.230634 143.563571,37.6416853 C144.772143,37.054166 145.796429,36.2536532 146.635,35.2358583 C147.473571,34.2180635 148.126429,33.0344481 148.593571,31.6835827 C149.062143,30.3327173 149.296429,28.914666 149.296429,27.4265699 M139.177857,44.1415635 C137.227857,44.1415635 135.423571,43.8485186 133.767857,43.2638583 C132.110714,42.6777686 130.677857,41.8400891 129.469286,40.7465314 C128.259286,39.6558327 127.313571,38.3664353 126.632143,36.8840571 C125.949286,35.4016788 125.609286,33.7449032 125.609286,31.9094417 C125.609286,29.6079673 126.007857,27.4137045 126.807857,25.3252237 C127.606429,23.2381724 128.746429,21.3955635 130.227857,19.7945378 C131.709286,18.1963712 133.493571,16.9184096 135.579286,15.9606532 C137.666429,15.0071853 139.996429,14.5283071 142.570714,14.5283071 C144.559286,14.5283071 146.380714,14.8213519 148.037857,15.4060122 C149.695,15.9906724 151.127857,16.8212045 152.336429,17.8933199 C153.546429,18.9668647 154.490714,20.2534032 155.173571,21.7557942 C155.856429,23.2581853 156.197857,24.906384 156.197857,26.7003904 C156.197857,29.0418904 155.796429,31.2661724 154.997857,33.3732365 C154.199286,35.4803006 153.057857,37.3343455 151.577857,38.9325122 C150.095,40.5335378 148.302143,41.8014929 146.196429,42.7363776 C144.090714,43.6726917 141.750714,44.1415635 139.177857,44.1415635" id="Fill-19"></path>
                    <path d="M170.277143,19.6788923 C171.252857,18.1579179 172.49,16.9185526 173.992857,15.9607962 C175.491429,15.0058987 177.295714,14.5270205 179.401429,14.5270205 C180.961429,14.5270205 182.315714,14.7628859 183.465714,15.2303282 C184.615714,15.6992 185.571429,16.3224564 186.331429,17.1029564 C187.092857,17.8834564 187.657143,18.8111936 188.028571,19.883309 C188.398571,20.9568538 188.582857,22.0775718 188.582857,23.2483218 C188.582857,24.2246615 188.505714,25.1023667 188.35,25.8814372 L185.248571,43.3797897 L178.405714,43.3797897 L181.097143,27.9298923 C181.175714,27.4610205 181.244286,26.9935782 181.302857,26.5261359 C181.36,26.0572641 181.39,25.5898218 181.39,25.12095 C181.39,23.8730077 181.058571,22.7708731 180.395714,21.8145462 C179.732857,20.8582192 178.522857,20.3807705 176.77,20.3807705 C175.638571,20.3807705 174.644286,20.5951936 173.787143,21.0240397 C172.928571,21.4543154 172.178571,22.0303987 171.535714,22.7508603 C170.891429,23.4727513 170.365714,24.2832705 169.955714,25.179559 C169.545714,26.0787064 169.262857,26.9935782 169.108571,27.9298923 L166.358571,43.3797897 L159.517143,43.3797897 L163.375714,21.3170846 C163.531429,20.5766103 163.698571,19.6202833 163.874286,18.4495333 C164.048571,17.2787833 164.175714,16.2252513 164.252857,15.2889372 L170.685714,15.2889372 C170.648571,15.7177833 170.57,16.3910718 170.452857,17.3088026 C170.335714,18.2251038 170.238571,19.0156103 170.16,19.6788923 L170.277143,19.6788923 Z" id="Fill-21"></path>
                    <polygon id="Fill-23" points="53.3254286 43.3799327 58.2368571 15.2890801 65.1397143 15.2890801 60.1668571 43.3799327"></polygon>
                    <path d="M67.3098571,5.43848397 C67.3098571,6.58064423 66.9055714,7.58557372 66.0998571,8.45041346 C65.2927143,9.31811218 64.2998571,9.75124679 63.1184286,9.75124679 C61.977,9.75124679 61.0027143,9.39673397 60.1955714,8.68627885 C59.3884286,7.97725321 58.9855714,6.97375321 58.9855714,5.67434936 C58.9855714,4.41354167 59.4184286,3.38145192 60.2841429,2.57236218 C61.1498571,1.76613141 62.1541429,1.36158654 63.2941429,1.36158654 C64.4355714,1.36158654 65.3912857,1.72610577 66.1584286,2.45514423 C66.9255714,3.18418269 67.3098571,4.17767628 67.3098571,5.43848397" id="Fill-25"></path>
                </g>
            </g>
        </g>
    </g>
</svg>