<?xml version="1.0" encoding="UTF-8"?>
<svg width="2172px" height="86px" viewBox="0 0 2172 86" version="1.1" xmlns="http://www.w3.org/2000/svg" xmlns:xlink="http://www.w3.org/1999/xlink">
    <title>Group</title>
    <g id="website-design" stroke="none" stroke-width="1" fill="none" fill-rule="evenodd">
        <g id="Group">
            <polygon id="Mask" points="0 19 1668 19 1668 85 0 85"></polygon>
            <polygon id="Fill-26" fill="#FF7C00" points="0 85 0.00382727692 19 1668 19 1650.50934 85"></polygon>
            <polygon id="Fill-29" fill="#D5D5D6" points="1820.44557 19 1803 85 1852.55825 85 1870 19"></polygon>
            <polygon id="Fill-31" fill="#9D9EA0" points="1754.44175 19 1737 85 1786.55443 85 1804 19"></polygon>
            <polygon id="Fill-33" fill="#FF7C00" points="1669 85 1686.70494 19 1737 19 1719.29506 85"></polygon>
            <polygon id="Fill-1" fill="#CBCBCB" points="2007.29528 75.70365 2005.65124 84.6002017 2015.94437 84.6002017 2017.58841 75.70365"></polygon>
            <polygon id="Fill-2" fill="#CBCBCB" points="2061.01256 75.70365 2059.36852 84.6002017 2069.66165 84.6002017 2071.30569 75.70365"></polygon>
            <polygon id="Fill-3" fill="#929292" points="1995.35811 75.70365 1993.71407 84.6002017 2004.0072 84.6002017 2005.65124 75.70365"></polygon>
            <polygon id="Fill-4" fill="#929292" points="2153.52565 75.70365 2151.88161 84.6002017 2162.1785 84.6002017 2163.81878 75.70365"></polygon>
            <polygon id="Fill-5" fill="#CBCBCB" points="1965.5157 75.70365 1963.87113 84.6002017 1974.16751 84.6002017 1975.80831 75.70365"></polygon>
            <polygon id="Fill-6" fill="#CBCBCB" points="1889.4157 75.70365 1887.77166 84.6002017 1898.06479 84.6002017 1899.70883 75.70365"></polygon>
            <polygon id="Fill-7" fill="#FF7C00" points="1947.60994 75.70365 1945.96538 84.6002017 1956.26175 84.6002017 1957.90255 75.70365"></polygon>
            <polygon id="Fill-8" fill="#FF7C00" points="2089.36334 75.70365 2087.7193 84.6002017 2098.01243 84.6002017 2099.65648 75.70365"></polygon>
            <polygon id="Fill-9" fill="#FF7C00" points="2140.09581 75.70365 2138.45229 84.6002017 2148.74217 84.6002017 2150.38946 75.70365"></polygon>
            <path d="M1919.84846,38.0010523 C1919.90671,37.5891543 1919.94675,37.2064172 1919.97588,36.8528411 C1920.00864,36.5029101 1920.0232,36.1493339 1920.0232,35.7957578 C1920.0232,33.5029805 1919.21501,31.5637793 1917.60225,29.9781543 C1915.98222,28.3888842 1913.70689,27.5942491 1910.77627,27.5942491 C1908.95601,27.5942491 1907.31413,27.9186644 1905.84336,28.5674948 C1904.37623,29.2126802 1903.0984,30.0510566 1902.01353,31.078979 C1900.92865,32.1069014 1900.03308,33.2405322 1899.32682,34.472581 C1898.6242,35.708275 1898.15457,36.8856471 1897.91794,38.0010523 L1919.84846,38.0010523 Z M1896.9532,45.4079259 C1896.88767,45.7031802 1896.86218,46.0239503 1896.86218,46.3775264 C1896.86218,47.7881859 1897.13886,49.0822017 1897.6995,50.2559287 C1898.25286,51.4333009 1899.03194,52.4466428 1900.03308,53.2995997 C1901.03058,54.1525566 1902.20283,54.8269029 1903.55347,55.3262836 C1904.90774,55.8293095 1906.37488,56.0771773 1907.95486,56.0771773 C1910.65977,56.0771773 1912.96059,55.5777966 1914.87186,54.5790351 C1916.77586,53.5802736 1918.49782,52.2279359 1920.0232,50.5220221 L1925.9245,56.0771773 C1920.6967,61.7198152 1914.32578,64.5411342 1906.81538,64.5411342 C1903.93936,64.5411342 1901.2927,64.1146557 1898.88631,63.265344 C1896.47993,62.4123871 1894.39755,61.1912736 1892.63189,59.6020034 C1890.87352,58.0163784 1889.49376,56.0625968 1888.49626,53.7406586 C1887.49511,51.4187204 1887,48.7577865 1887,45.7578569 C1887,42.1163871 1887.61525,38.7227851 1888.84575,35.5770509 C1890.07988,32.4313167 1891.80185,29.6829 1893.99709,27.3318009 C1896.20325,24.9807017 1898.8135,23.1435638 1901.83878,21.8203871 C1904.86406,20.4972103 1908.16601,19.8374445 1911.74101,19.8374445 C1914.26753,19.8374445 1916.60111,20.1910207 1918.74538,20.8945279 C1920.88601,21.5980351 1922.7536,22.6587635 1924.33723,24.069423 C1925.9245,25.4800825 1927.15863,27.2443181 1928.03964,29.3584848 C1928.91701,31.4762966 1929.35751,33.9440394 1929.35751,36.7653583 C1929.35751,37.705798 1929.27014,39.0143943 1929.09539,40.6911471 C1928.91701,42.3642549 1928.65489,43.9389445 1928.29812,45.4079259 L1896.9532,45.4079259 Z" id="Fill-10" fill="#000000"></path>
            <path d="M1950.88175,28.0374951 C1952.34888,25.5697523 1954.08177,23.5831647 1956.08042,22.0850224 C1958.07543,20.5868802 1960.48546,19.8359865 1963.29958,19.8359865 C1963.70732,19.8359865 1964.15511,19.850567 1964.62109,19.8797279 C1965.08708,19.9125339 1965.50574,19.9854362 1965.85159,20.1020799 L1964.44635,29.714248 C1963.79834,29.5356374 1963.22677,29.4189937 1962.72802,29.3606718 C1962.22563,29.30235 1961.74144,29.2731891 1961.27181,29.2731891 C1958.86542,29.2731891 1956.89954,29.714248 1955.37416,30.5927207 C1953.84514,31.4748385 1952.61828,32.535567 1951.67903,33.7676158 C1950.73613,35.0033098 1950.05899,36.2681647 1949.64761,37.5621805 C1949.23623,38.8525511 1948.97776,39.8841187 1948.85762,40.6459477 L1944.89309,63.3076273 L1934.5904,63.3076273 L1940.49169,30.064179 C1940.72469,28.9487739 1940.97588,27.5089534 1941.24164,25.7447178 C1941.5074,23.9804822 1941.69671,22.3948572 1941.81684,20.9841977 L1951.497,20.9841977 C1951.497,21.279452 1951.46788,21.7205109 1951.41327,22.3073744 C1951.35138,22.8942379 1951.27857,23.5394233 1951.1912,24.2465756 C1951.10746,24.9500828 1951.01281,25.6426546 1950.92908,26.3170009 C1950.83807,26.9949922 1950.7689,27.5672753 1950.70701,28.0374951 L1950.88175,28.0374951 Z" id="Fill-12" fill="#000000"></path>
            <path d="M1995.20078,51.1398691 C1996.08178,52.8457829 1997.38873,54.1543792 1999.11798,55.0656579 C2000.85087,55.9732915 2002.77307,56.4289309 2004.88822,56.4289309 C2007.2946,56.4289309 2009.22044,55.9623562 2010.65481,55.0219165 C2012.09281,54.0814769 2012.81364,52.7874611 2012.81364,51.1398691 C2012.81364,49.6125659 2012.24208,48.4825803 2011.09531,47.742622 C2009.95219,47.0099539 2008.11736,46.2335444 2005.59084,45.4097484 C2003.59583,44.760918 2001.84838,44.1011522 2000.35212,43.4231608 C1998.85587,42.7488145 1997.60716,41.9541795 1996.60966,41.0429007 C1995.60852,40.131622 1994.86221,39.0891191 1994.3671,37.9153921 C1993.8647,36.73802 1993.61715,35.3565214 1993.61715,33.7672513 C1993.61715,31.7114065 1994.08678,29.8305272 1995.02603,28.1246134 C1995.96529,26.4223447 1997.25403,24.9497182 1998.90319,23.7176694 C2000.54507,22.4819754 2002.47819,21.5269553 2004.71347,20.8526091 C2006.94511,20.1782628 2009.38426,19.8392671 2012.02,19.8392671 C2015.3074,19.8392671 2018.28899,20.4407111 2020.96113,21.643599 C2023.63328,22.850132 2025.73022,24.68727 2027.2556,27.1550128 L2019.24281,31.9155329 C2018.48194,30.7418059 2017.48079,29.7576249 2016.24665,28.9629898 C2015.01616,28.1683547 2013.34151,27.7746823 2011.23001,27.7746823 C2010.349,27.7746823 2009.45343,27.8621651 2008.5433,28.0371306 C2007.62953,28.2120961 2006.82497,28.49277 2006.11871,28.875507 C2005.41609,29.2582441 2004.84453,29.7722053 2004.40403,30.4173907 C2003.96352,31.0662211 2003.74145,31.8608562 2003.74145,32.7976507 C2003.74145,34.1536335 2004.31665,35.152395 2005.45978,35.7975803 C2006.60654,36.4464108 2008.29211,37.0915961 2010.52375,37.7367815 C2014.45552,38.8521866 2017.50992,40.3685545 2019.68695,42.2785947 C2021.85306,44.1886349 2022.94158,46.9078907 2022.94158,50.4363619 C2022.94158,52.7874611 2022.44283,54.8578864 2021.44532,56.6512829 C2020.44782,58.4446795 2019.11175,59.9574022 2017.43711,61.1930961 C2015.76246,62.425145 2013.8257,63.3510042 2011.62683,63.9706737 C2009.42431,64.5866981 2007.09437,64.8965329 2004.62246,64.8965329 C2000.04268,64.8965329 1996.35846,64.0873174 1993.56982,62.4688864 C1990.78118,60.8541004 1988.65511,58.841997 1987.18798,56.4289309 L1995.20078,51.1398691 Z" id="Fill-14" fill="#000000"></path>
            <path d="M2030.63911,84.4693421 L2024.19902,84.4693421 L2025.79357,75.4768435 L2030.46436,75.4768435 C2032.39748,75.4768435 2033.9083,74.9337214 2035.00046,73.843832 C2036.08533,72.7575878 2037.27578,71.0954154 2038.56453,68.864605 L2041.73543,63.3969326 L2032.22273,20.9823751 L2043.31542,20.9823751 L2048.7762,52.0205289 L2048.95823,52.0205289 L2065.86483,20.9823751 L2076.7864,20.9823751 L2046.84308,72.4805591 C2045.78733,74.3577932 2044.73158,76.0491266 2043.67219,77.5472688 C2042.61643,79.0490562 2041.45511,80.3102659 2040.19548,81.3381884 C2038.92858,82.3661108 2037.5379,83.1461654 2036.01252,83.6783522 C2034.4835,84.2068938 2032.69236,84.4693421 2030.63911,84.4693421" id="Fill-16" fill="#000000"></path>
            <path d="M2111.4169,39.2699168 C2111.4169,36.0877315 2110.44852,33.4632487 2108.51176,31.3964685 C2106.57136,29.3333335 2103.93198,28.3017659 2100.57906,28.3017659 C2098.35105,28.3017659 2096.34513,28.7574053 2094.55399,29.6723292 C2092.75921,30.587253 2091.23383,31.8083665 2089.97421,33.3429599 C2088.71094,34.8775533 2087.728,36.6490792 2087.02174,38.6502473 C2086.31184,40.6587056 2085.96599,42.7801625 2085.96599,45.0219082 C2085.96599,48.2077386 2086.90524,50.8285763 2088.78375,52.8917114 C2090.66227,54.9584915 2093.30529,55.9864139 2096.70918,55.9864139 C2098.94082,55.9864139 2100.96495,55.545355 2102.78521,54.6632372 C2104.60548,53.7774743 2106.14906,52.5672961 2107.40504,51.0363478 C2108.67194,49.5017545 2109.65489,47.7192932 2110.36115,45.681674 C2111.06377,43.6476999 2111.4169,41.5116625 2111.4169,39.2699168 M2096.17766,64.4540159 C2093.2434,64.4540159 2090.52757,64.012957 2088.03745,63.1308392 C2085.54005,62.2487214 2083.38122,60.9875116 2081.56095,59.3399197 C2079.74069,57.6923277 2078.31724,55.7567717 2077.29062,53.5186711 C2076.26399,51.2878608 2075.75067,48.7873119 2075.75067,46.0243148 C2075.75067,42.5578105 2076.35136,39.2516912 2077.55637,36.105957 C2078.75775,32.9602228 2080.47608,30.1826453 2082.70772,27.7732243 C2084.93572,25.3638033 2087.62243,23.4391826 2090.7642,21.9957171 C2093.90233,20.5558967 2097.41544,19.8378091 2101.28896,19.8378091 C2104.28147,19.8378091 2107.02643,20.278868 2109.52019,21.1609858 C2112.01759,22.0394585 2114.17642,23.2897329 2115.99304,24.9081639 C2117.81694,26.526595 2119.23311,28.4657961 2120.26702,30.7257674 C2121.29364,32.9893838 2121.80696,35.4753522 2121.80696,38.1763823 C2121.80696,41.7048536 2121.20263,45.0547142 2120.0049,48.2296093 C2118.79988,51.4045045 2117.08156,54.1966625 2114.85356,56.6060835 C2112.61827,59.0155045 2109.92064,60.9255447 2106.74975,62.3398493 C2103.57885,63.7468636 2100.05482,64.4540159 2096.17766,64.4540159" id="Fill-18" fill="#000000"></path>
            <path d="M2143.00829,27.5960717 C2144.47178,25.3032944 2146.34301,23.4369955 2148.60377,21.9971751 C2150.85726,20.5573547 2153.57309,19.835622 2156.74399,19.835622 C2159.09577,19.835622 2161.13446,20.1891981 2162.86735,20.8963504 C2164.5966,21.5998576 2166.03825,22.5402973 2167.18137,23.7140243 C2168.32814,24.8913964 2169.17274,26.2874754 2169.73702,27.9059065 C2170.29402,29.5206924 2170.5707,31.2120257 2170.5707,32.9762614 C2170.5707,34.4452427 2170.4542,35.7684194 2170.22121,36.9421464 L2165.55042,63.3072628 L2155.24409,63.3072628 L2159.30328,40.0295588 C2159.41977,39.3224065 2159.51807,38.6188993 2159.60908,37.911747 C2159.69645,37.2082398 2159.74378,36.5010875 2159.74378,35.7975803 C2159.74378,33.916701 2159.24139,32.2545286 2158.24388,30.8147082 C2157.24274,29.3748878 2155.42248,28.653155 2152.7831,28.653155 C2151.07933,28.653155 2149.58307,28.9775703 2148.29069,29.6227556 C2147.00194,30.2715861 2145.87338,31.1391234 2144.90136,32.2253677 C2143.93298,33.3116119 2143.1357,34.5327254 2142.52045,35.8850631 C2141.90521,37.2374007 2141.48291,38.6188993 2141.24991,40.0295588 L2137.10699,63.3072628 L2126.80795,63.3072628 L2132.61823,30.0638145 C2132.85122,28.9484093 2133.09878,27.5085889 2133.36817,25.7443533 C2133.63029,23.9801177 2133.8196,22.3944927 2133.93974,20.9838332 L2143.62353,20.9838332 C2143.56165,21.6326636 2143.44879,22.6460056 2143.2704,24.0238591 C2143.09566,25.4053576 2142.9464,26.5973102 2142.8299,27.5960717 L2143.00829,27.5960717 Z" id="Fill-20" fill="#000000"></path>
            <polygon id="Fill-22" fill="#000000" points="1966.91208 63.3087208 1974.30598 20.9852912 1984.69968 20.9852912 1977.21476 63.3087208"></polygon>
            <path d="M1987.9696,6.14201868 C1987.9696,7.86251293 1987.36163,9.37523563 1986.14934,10.6801868 C1984.9334,11.988783 1983.43715,12.6376135 1981.65693,12.6376135 C1979.9386,12.6376135 1978.47147,12.1054267 1977.25554,11.037408 C1976.04324,9.96938937 1975.43527,8.45666667 1975.43527,6.49923994 C1975.43527,4.60013506 1976.08329,3.04367098 1977.39024,1.82620259 C1978.6899,0.608734195 1980.20072,0 1981.92633,0 C1983.64102,0 1985.07903,0.550412356 1986.23307,1.64759195 C1987.39076,2.74477155 1987.9696,4.24291379 1987.9696,6.14201868" id="Fill-24" fill="#000000"></path>
        </g>
    </g>
</svg>