<?xml version="1.0" encoding="UTF-8"?>
<svg width="152px" height="38px" viewBox="0 0 152 38" version="1.1" xmlns="http://www.w3.org/2000/svg" xmlns:xlink="http://www.w3.org/1999/xlink">
    <title>fs_icon_lineup</title>
    <g id="Symbols" stroke="none" stroke-width="1" fill="none" fill-rule="evenodd">
        <g id="fs_icon_lineup">
            <g id="Group" transform="translate(0.000000, 5.000000)" fill="#000000" fill-rule="nonzero">
                <g id="Combined-Shape">
                    <path d="M10.9375,0 C11.3402076,0 11.6666667,0.329895447 11.6666667,0.736842105 L11.6666667,0.736842105 L11.666,10.315 L13.125,10.315 L13.125,0.736842105 C13.125,0.363807669 13.3993163,0.0555176524 13.7552231,0.00672649993 L13.8541667,0 L21.1458333,0 C21.548541,0 21.875,0.329895447 21.875,0.736842105 L21.875,0.736842105 L21.875,10.315 L23.3333333,10.3157895 L23.3333333,0.736842105 C23.3333333,0.329895447 23.6597924,0 24.0625,0 L24.0625,0 L31.3541667,0 C31.7568743,0 32.0833333,0.329895447 32.0833333,0.736842105 L32.0833333,0.736842105 L32.083,10.315 L33.541,10.315 L33.5416667,6.63157895 C33.5416667,6.22463229 33.8681257,5.89473684 34.2708333,5.89473684 C34.6287957,5.89473684 34.9265122,6.15539497 34.9882521,6.49913065 L35,6.63157895 L35,21.3684211 C35,24.9260986 32.2271721,27.829762 28.7464107,27.9927814 L28.4375,28 L6.5625,28 C3.04188164,28 0.168464665,25.1979845 0.0071433836,21.6805834 L0,21.3684211 L0,6.63157895 C0,6.22463229 0.326459037,5.89473684 0.729166667,5.89473684 C1.087129,5.89473684 1.38484554,6.15539497 1.44658548,6.49913065 L1.45833333,6.63157895 L1.458,10.315 L2.916,10.315 L2.91666667,0.736842105 C2.91666667,0.363807669 3.19098294,0.0555176524 3.54688974,0.00672649993 L3.64583333,0 Z M2.916,11.789 L1.458,11.789 L1.45833333,21.3684211 C1.45833333,24.1218954 3.59392758,26.3717521 6.2824676,26.5186831 L6.5625,26.5263158 L28.4375,26.5263158 C31.1622923,26.5263158 33.388713,24.3682416 33.5341135,21.6514012 L33.5416667,21.3684211 L33.541,11.789 L32.083,11.789 L32.0833333,17.6842105 C32.0833333,20.0544885 30.2385014,21.9884538 27.920341,22.100166 L27.7083333,22.1052632 C25.2916674,22.1052632 23.3333333,20.1263151 23.3333333,17.6842105 L23.3333333,17.6842105 L23.3333333,11.7894737 L21.875,11.789 L21.875,17.6842105 C21.875,20.0544885 20.030168,21.9884538 17.7120076,22.100166 L17.5,22.1052632 C15.083334,22.1052632 13.125,20.1263151 13.125,17.6842105 L13.125,17.6842105 L13.125,11.789 L11.666,11.789 L11.6666667,17.6842105 C11.6666667,20.0544885 9.82183469,21.9884538 7.50367429,22.100166 L7.29166667,22.1052632 C4.8750007,22.1052632 2.91666667,20.1263151 2.91666667,17.6842105 L2.91666667,17.6842105 L2.916,11.789 Z M10.208,8.842 L4.375,8.842 L4.375,17.6842105 C4.375,19.1786352 5.47470315,20.4127078 6.90123684,20.6054202 L7.07394021,20.6234972 L7.29166667,20.6315789 C8.90291737,20.6315789 10.2083333,19.3124218 10.2083333,17.6842105 L10.2083333,17.6842105 L10.208,8.842 Z M20.416,8.842 L14.583,8.842 L14.5833333,17.6842105 C14.5833333,19.1786352 15.6830365,20.4127078 17.1095702,20.6054202 L17.2822735,20.6234972 L17.5,20.6315789 C19.1112507,20.6315789 20.4166667,19.3124218 20.4166667,17.6842105 L20.4166667,17.6842105 L20.416,8.842 Z M30.624,8.842 L24.791,8.842 L24.7916667,17.6842105 C24.7916667,19.1786352 25.8913698,20.4127078 27.3179035,20.6054202 L27.4906069,20.6234972 L27.7083333,20.6315789 C29.319584,20.6315789 30.625,19.3124218 30.625,17.6842105 L30.625,17.6842105 L30.624,8.842 Z M16.7708333,17.6842105 C17.1733333,17.6842105 17.5,18.0143158 17.5,18.4210526 C17.5,18.8277895 17.1733333,19.1578947 16.7708333,19.1578947 C16.3683333,19.1578947 16.0416667,18.8277895 16.0416667,18.4210526 C16.0416667,18.0143158 16.3683333,17.6842105 16.7708333,17.6842105 Z M28.4375,17.6842105 C28.84,17.6842105 29.1666667,18.0143158 29.1666667,18.4210526 C29.1666667,18.8277895 28.84,19.1578947 28.4375,19.1578947 C28.035,19.1578947 27.7083333,18.8277895 27.7083333,18.4210526 C27.7083333,18.0143158 28.035,17.6842105 28.4375,17.6842105 Z M8.02083333,16.2105263 C8.42333333,16.2105263 8.75,16.5406316 8.75,16.9473684 C8.75,17.3541053 8.42333333,17.6842105 8.02083333,17.6842105 C7.61833333,17.6842105 7.29166667,17.3541053 7.29166667,16.9473684 C7.29166667,16.5406316 7.61833333,16.2105263 8.02083333,16.2105263 Z M18.2291667,14.7368421 C18.6316667,14.7368421 18.9583333,15.0669474 18.9583333,15.4736842 C18.9583333,15.8804211 18.6316667,16.2105263 18.2291667,16.2105263 C17.8266667,16.2105263 17.5,15.8804211 17.5,15.4736842 C17.5,15.0669474 17.8266667,14.7368421 18.2291667,14.7368421 Z M26.9791667,14.7368421 C27.3816667,14.7368421 27.7083333,15.0669474 27.7083333,15.4736842 C27.7083333,15.8804211 27.3816667,16.2105263 26.9791667,16.2105263 C26.5766667,16.2105263 26.25,15.8804211 26.25,15.4736842 C26.25,15.0669474 26.5766667,14.7368421 26.9791667,14.7368421 Z M8.02083333,11.7894737 C8.42333333,11.7894737 8.75,12.1195789 8.75,12.5263158 C8.75,12.9330526 8.42333333,13.2631579 8.02083333,13.2631579 C7.61833333,13.2631579 7.29166667,12.9330526 7.29166667,12.5263158 C7.29166667,12.1195789 7.61833333,11.7894737 8.02083333,11.7894737 Z M28.4375,11.7894737 C28.84,11.7894737 29.1666667,12.1195789 29.1666667,12.5263158 C29.1666667,12.9330526 28.84,13.2631579 28.4375,13.2631579 C28.035,13.2631579 27.7083333,12.9330526 27.7083333,12.5263158 C27.7083333,12.1195789 28.035,11.7894737 28.4375,11.7894737 Z M6.5625,10.3157895 C6.965,10.3157895 7.29166667,10.6458947 7.29166667,11.0526316 C7.29166667,11.4593684 6.965,11.7894737 6.5625,11.7894737 C6.16,11.7894737 5.83333333,11.4593684 5.83333333,11.0526316 C5.83333333,10.6458947 6.16,10.3157895 6.5625,10.3157895 Z M16.7708333,10.3157895 C17.1733333,10.3157895 17.5,10.6458947 17.5,11.0526316 C17.5,11.4593684 17.1733333,11.7894737 16.7708333,11.7894737 C16.3683333,11.7894737 16.0416667,11.4593684 16.0416667,11.0526316 C16.0416667,10.6458947 16.3683333,10.3157895 16.7708333,10.3157895 Z M30.625,1.47368421 L24.7916667,1.47368421 L24.791,7.368 L30.624,7.368 L30.625,1.47368421 Z M20.4166667,1.47368421 L14.5833333,1.47368421 L14.583,7.368 L20.416,7.368 L20.4166667,1.47368421 Z M10.2083333,1.47368421 L4.375,1.47368421 L4.375,7.368 L10.208,7.368 L10.2083333,1.47368421 Z"></path>
                </g>
            </g>
            <g id="Group" transform="translate(119.000000, 1.000000)" fill="#000000" fill-rule="nonzero">
                <g id="Combined-Shape">
                    <path d="M16.5,0 C25.564869,0 33,3.10493461 33,7.36363636 C33,7.37598686 32.9999376,7.38832763 32.9998128,7.40065862 L32.99835,28.6363636 C32.99835,32.8975068 25.5670393,36 16.49835,36 C7.60405852,36 0.28477518,33.0156861 0.00655359105,28.8808995 L-0.00165,28.6363636 L-0.00165,7.36363636 L0.000141588685,7.33145481 C0.0374851476,3.0890819 7.45691011,0 16.5,0 Z M16.49835,28.6363636 C9.99255112,28.6363636 4.32942965,27.0396646 1.64813794,24.5639445 L1.64835,28.6363636 C1.64835,31.606639 8.25210463,34.3636364 16.49835,34.3636364 C24.5727986,34.3636364 31.0724807,31.7203173 31.3397962,28.8217051 L31.34835,28.6363636 L31.3485621,24.5639445 C28.6672703,27.0396646 23.0041489,28.6363636 16.49835,28.6363636 Z M1.64835,21.2727273 C1.64835,24.2430027 8.25210463,27 16.49835,27 C24.7445954,27 31.34835,24.2430027 31.34835,21.2727273 L31.3485621,17.2003081 C28.6672703,19.6760283 23.0041489,21.2727273 16.49835,21.2727273 C9.99255112,21.2727273 4.32942965,19.6760283 1.64813794,17.2003081 L1.64835,21.2727273 L1.64835,21.2727273 Z M1.64778229,10.653001 L1.64835,13.9090909 L1.64835,13.9090909 C1.64835,16.8793663 8.25210463,19.6363636 16.49835,19.6363636 C24.7445954,19.6363636 31.34835,16.8793663 31.34835,13.9090909 L31.3485321,10.6561376 C28.6663802,13.1310533 23.0038211,14.7272727 16.5,14.7272727 C9.99257852,14.7272727 4.32825485,13.1297772 1.64778229,10.653001 Z M16.5,1.63636364 C8.25641941,1.63636364 1.65,4.39542621 1.65,7.36363636 C1.65,10.3339117 8.25375463,13.0909091 16.5,13.0909091 C24.7451564,13.0909091 31.35,10.3336576 31.35,7.36363636 L31.34735,7.419 L31.34835,7.36363636 L31.3499096,7.34462244 C31.321768,4.38390638 24.7248872,1.63636364 16.5,1.63636364 Z"></path>
                </g>
            </g>
            <polygon id="Triangle" fill="#9D9EA0" transform="translate(46.500000, 19.500000) rotate(-270.000000) translate(-46.500000, -19.500000) " points="46.5 16 53 23 40 23"></polygon>
            <polygon id="Triangle-Copy" fill="#9D9EA0" transform="translate(107.500000, 19.500000) rotate(-270.000000) translate(-107.500000, -19.500000) " points="107.5 16 114 23 101 23"></polygon>
            <g id="Group" transform="translate(58.000000, 0.000000)" fill="#000000" fill-rule="nonzero">
                <g id="Combined-Shape">
                    <path d="M19,0 C29.4935116,0 38,8.50597742 38,19 C38,29.4940226 29.4935116,38 19,38 C8.50544124,38 0,29.4945588 0,19 C0,8.50544124 8.50544124,0 19,0 Z M19,1.58333333 C9.37989209,1.58333333 1.58333333,9.37989209 1.58333333,19 C1.58333333,28.6201079 9.37989209,36.4166667 19,36.4166667 C28.6190821,36.4166667 36.4166667,28.6195504 36.4166667,19 C36.4166667,9.38044957 28.6190821,1.58333333 19,1.58333333 Z M21.375,9.5 C21.5849631,9.5 21.7863266,9.5834075 21.9347929,9.7318738 L21.9347929,9.7318738 L24.8694167,12.6666667 L28.5,12.6666667 C30.1642265,12.6666667 31.5366239,13.9634174 31.6579488,15.5976755 L31.6579488,15.5976755 L31.6666667,15.8333333 L31.6666667,23.75 C31.6666667,25.4934754 30.2434754,26.9166667 28.5,26.9166667 L28.5,26.9166667 L9.5,26.9166667 C7.75652457,26.9166667 6.33333333,25.4934754 6.33333333,23.75 L6.33333333,23.75 L6.33333333,15.8333333 C6.33333333,14.0898579 7.75652457,12.6666667 9.5,12.6666667 L9.5,12.6666667 L13.129,12.6666667 L16.0652071,9.7318738 C16.1839802,9.61310076 16.3366074,9.53596535 16.5004085,9.50986211 L16.5004085,9.50986211 L16.625,9.5 Z M21.04725,11.0833333 L16.9511667,11.0833333 L14.0181262,14.0181262 C13.8993532,14.1368992 13.7467259,14.2140346 13.5829248,14.2401379 L13.5829248,14.2401379 L13.4583333,14.25 L9.5,14.25 C8.63097543,14.25 7.91666667,14.9643088 7.91666667,15.8333333 L7.91666667,15.8333333 L7.91666667,23.75 C7.91666667,24.6190246 8.63097543,25.3333333 9.5,25.3333333 L9.5,25.3333333 L28.5,25.3333333 C29.3690246,25.3333333 30.0833333,24.6190246 30.0833333,23.75 L30.0833333,23.75 L30.0833333,15.8333333 C30.0833333,14.9643088 29.3690246,14.25 28.5,14.25 L28.5,14.25 L24.5416667,14.25 C24.3317036,14.25 24.1303401,14.1665925 23.9818738,14.0181262 L23.9818738,14.0181262 L21.04725,11.0833333 Z M19,14.25 C21.6227234,14.25 23.75,16.376689 23.75,19 C23.75,21.623311 21.6227234,23.75 19,23.75 C16.3761912,23.75 14.25,21.6238088 14.25,19 C14.25,16.3761912 16.3761912,14.25 19,14.25 Z M19,15.8333333 C17.2506421,15.8333333 15.8333333,17.2506421 15.8333333,19 C15.8333333,20.7493579 17.2506421,22.1666667 19,22.1666667 C20.7483704,22.1666667 22.1666667,20.7487622 22.1666667,19 C22.1666667,17.2512378 20.7483704,15.8333333 19,15.8333333 Z M27.7083333,15.8333333 C28.1453333,15.8333333 28.5,16.188 28.5,16.625 C28.5,17.062 28.1453333,17.4166667 27.7083333,17.4166667 C27.2713333,17.4166667 26.9166667,17.062 26.9166667,16.625 C26.9166667,16.188 27.2713333,15.8333333 27.7083333,15.8333333 Z"></path>
                </g>
            </g>
        </g>
    </g>
</svg>