<?xml version="1.0" encoding="UTF-8"?>
<svg width="426px" height="85px" viewBox="0 0 426 85" version="1.1" xmlns="http://www.w3.org/2000/svg" xmlns:xlink="http://www.w3.org/1999/xlink">
    <title>Group</title>
    <g id="Symbols" stroke="none" stroke-width="1" fill="none" fill-rule="evenodd">
        <g id="fs_logo" transform="translate(-46.000000, -42.000000)">
            <g id="Group" transform="translate(46.521500, 42.331000)">
                <path d="M7.038,36.669 L10.251,22.899 L24.531,22.899 L25.857,17.187 L11.577,17.187 L13.566,8.67 L30.855,8.67 L32.181,3.009 L7.803,3.009 L-1.13686838e-13,36.669 L7.038,36.669 Z M36.995,37.077 C37.777,37.077 38.457,37.0345 39.035,36.9495 C39.613,36.8645 40.174,36.72 40.718,36.516 L40.718,36.516 L42.095,31.773 C41.823,31.841 41.517,31.892 41.177,31.926 C40.837,31.96 40.446,31.977 40.004,31.977 C38.848,31.977 38.0405,31.688 37.5815,31.11 C37.1225,30.532 37.046,29.631 37.352,28.407 L37.352,28.407 L43.931,-7.10542736e-15 L36.944,-7.10542736e-15 L30.365,28.407 C29.753,31.025 30.008,33.1245 31.13,34.7055 C32.252,36.2865 34.207,37.077 36.995,37.077 Z M53.386,37.128 C55.664,37.128 57.67,36.5245 59.404,35.3175 C60.4636667,34.5798889 61.3328704,33.6295941 62.0116111,32.4666157 L62.1705,32.183 L61.444,36.669 L67.615,36.669 L73.531,11.169 L66.544,11.169 L63.382,24.786 C63.042,26.248 62.5745,27.489 61.9795,28.509 C61.3845,29.529 60.662,30.3025 59.812,30.8295 C58.962,31.3565 57.942,31.62 56.752,31.62 C55.29,31.62 54.1935,31.161 53.4625,30.243 C52.7315,29.325 52.57,27.999 52.978,26.265 L52.978,26.265 L56.446,11.169 L49.459,11.169 L45.787,27.081 C45.311,29.189 45.3535,30.991 45.9145,32.487 C46.4755,33.983 47.4105,35.1305 48.7195,35.9295 C50.0285,36.7285 51.584,37.128 53.386,37.128 Z M87.474,37.128 C90.398,37.128 92.9055,36.465 94.9965,35.139 C97.0875,33.813 98.694,32.0195 99.816,29.7585 C100.938,27.4975 101.499,24.973 101.499,22.185 C101.499,20.009 101.0145,18.054 100.0455,16.32 C99.0765,14.586 97.691,13.2175 95.889,12.2145 C94.087,11.2115 91.894,10.71 89.31,10.71 C86.42,10.71 83.9295,11.3645 81.8385,12.6735 C79.7475,13.9825 78.1325,15.759 76.9935,18.003 C75.8545,20.247 75.285,22.78 75.285,25.602 C75.285,27.778 75.7695,29.7415 76.7385,31.4925 C77.7075,33.2435 79.11,34.6205 80.946,35.6235 C82.782,36.6265 84.958,37.128 87.474,37.128 Z M87.627,31.977 C86.437,31.977 85.434,31.722 84.618,31.212 C83.802,30.702 83.19,29.988 82.782,29.07 C82.374,28.152 82.17,27.132 82.17,26.01 C82.17,24.684 82.34,23.409 82.68,22.185 C83.02,20.961 83.5045,19.873 84.1335,18.921 C84.7625,17.969 85.5105,17.221 86.3775,16.677 C87.2445,16.133 88.171,15.861 89.157,15.861 C90.381,15.861 91.3925,16.116 92.1915,16.626 C92.9905,17.136 93.594,17.833 94.002,18.717 C94.41,19.601 94.614,20.621 94.614,21.777 C94.614,23.103 94.444,24.378 94.104,25.602 C93.764,26.826 93.271,27.9225 92.625,28.8915 C91.979,29.8605 91.231,30.617 90.381,31.161 C89.531,31.705 88.613,31.977 87.627,31.977 Z M110.24,36.669 L113.147,24.123 C113.555,22.355 114.15,20.927 114.932,19.839 C115.714,18.751 116.632,17.9435 117.686,17.4165 C118.74,16.8895 119.845,16.626 121.001,16.626 C121.647,16.626 122.191,16.677 122.633,16.779 C123.075,16.881 123.466,17.017 123.806,17.187 L123.806,17.187 L125.591,11.118 C125.285,10.948 124.9365,10.829 124.5455,10.761 C124.1545,10.693 123.67,10.659 123.092,10.659 C121.63,10.659 120.27,10.982 119.012,11.628 C117.754,12.274 116.666,13.1835 115.748,14.3565 C115.289,14.943 114.87675,15.582625 114.51125,16.275375 L114.4335,16.429 L115.238,11.169 L109.169,11.169 L103.253,36.669 L110.24,36.669 Z M136.372,37.128 C139.296,37.128 141.8035,36.465 143.8945,35.139 C145.9855,33.813 147.592,32.0195 148.714,29.7585 C149.836,27.4975 150.397,24.973 150.397,22.185 C150.397,20.009 149.9125,18.054 148.9435,16.32 C147.9745,14.586 146.589,13.2175 144.787,12.2145 C142.985,11.2115 140.792,10.71 138.208,10.71 C135.318,10.71 132.8275,11.3645 130.7365,12.6735 C128.6455,13.9825 127.0305,15.759 125.8915,18.003 C124.7525,20.247 124.183,22.78 124.183,25.602 C124.183,27.778 124.6675,29.7415 125.6365,31.4925 C126.6055,33.2435 128.008,34.6205 129.844,35.6235 C131.68,36.6265 133.856,37.128 136.372,37.128 Z M136.525,31.977 C135.335,31.977 134.332,31.722 133.516,31.212 C132.7,30.702 132.088,29.988 131.68,29.07 C131.272,28.152 131.068,27.132 131.068,26.01 C131.068,24.684 131.238,23.409 131.578,22.185 C131.918,20.961 132.4025,19.873 133.0315,18.921 C133.6605,17.969 134.4085,17.221 135.2755,16.677 C136.1425,16.133 137.069,15.861 138.055,15.861 C139.279,15.861 140.2905,16.116 141.0895,16.626 C141.8885,17.136 142.492,17.833 142.9,18.717 C143.308,19.601 143.512,20.621 143.512,21.777 C143.512,23.103 143.342,24.378 143.002,25.602 C142.662,26.826 142.169,27.9225 141.523,28.8915 C140.877,29.8605 140.129,30.617 139.279,31.161 C138.429,31.705 137.511,31.977 136.525,31.977 Z M164.493,37.23 C166.635,37.23 168.505,36.8815 170.103,36.1845 C171.701,35.4875 172.9335,34.493 173.8005,33.201 C174.6675,31.909 175.101,30.379 175.101,28.611 C175.101,27.081 174.625,25.7465 173.673,24.6075 C172.721,23.4685 171.344,22.627 169.542,22.083 L169.542,22.083 L164.595,20.553 C163.847,20.315 163.1585,20.026 162.5295,19.686 C161.9005,19.346 161.586,18.836 161.586,18.156 C161.586,17.374 161.9515,16.7705 162.6825,16.3455 C163.4135,15.9205 164.476,15.708 165.87,15.708 C166.924,15.708 167.9015,15.8865 168.8025,16.2435 C169.7035,16.6005 170.511,17.085 171.225,17.697 C171.939,18.309 172.5,19.023 172.908,19.839 L172.908,19.839 L177.141,16.218 C176.087,14.416 174.574,13.039 172.602,12.087 C170.63,11.135 168.352,10.659 165.768,10.659 C163.626,10.659 161.7645,10.999 160.1835,11.679 C158.6025,12.359 157.3785,13.311 156.5115,14.535 C155.6445,15.759 155.211,17.187 155.211,18.819 C155.211,20.485 155.755,21.93 156.843,23.154 C157.931,24.378 159.665,25.347 162.045,26.061 L162.045,26.061 L165.666,27.132 C166.516,27.37 167.162,27.7015 167.604,28.1265 C168.046,28.5515 168.267,29.07 168.267,29.682 C168.267,30.498 167.893,31.11 167.145,31.518 C166.397,31.926 165.36,32.13 164.034,32.13 C162.266,32.13 160.685,31.6625 159.291,30.7275 C157.897,29.7925 156.809,28.543 156.027,26.979 L156.027,26.979 L151.692,30.396 C152.44,31.79 153.46,33.0055 154.752,34.0425 C156.044,35.0795 157.523,35.87 159.189,36.414 C160.855,36.958 162.623,37.23 164.493,37.23 Z M190.88,37.128 C192.682,37.128 194.3395,36.89 195.8525,36.414 C197.3655,35.938 198.6915,35.2665 199.8305,34.3995 C200.9695,33.5325 201.862,32.487 202.508,31.263 L202.508,31.263 L196.796,28.713 C196.286,29.665 195.589,30.4555 194.705,31.0845 C193.821,31.7135 192.682,32.028 191.288,32.028 C190.098,32.028 189.061,31.7815 188.177,31.2885 C187.293,30.7955 186.6045,30.0985 186.1115,29.1975 C185.6185,28.2965 185.372,27.217 185.372,25.959 L185.3765,26.214 L203.426,26.214 C203.5892,25.67 203.70888,25.12056 203.78504,24.56568 L203.834,24.1485 C203.902,23.4515 203.936,22.763 203.936,22.083 C203.936,19.737 203.5025,17.714 202.6355,16.014 C201.7685,14.314 200.5105,13.005 198.8615,12.087 C197.2125,11.169 195.215,10.71 192.869,10.71 C189.911,10.71 187.378,11.373 185.27,12.699 C183.162,14.025 181.547,15.81 180.425,18.054 C179.303,20.298 178.742,22.814 178.742,25.602 C178.742,27.846 179.2435,29.835 180.2465,31.569 C181.2495,33.303 182.6605,34.663 184.4795,35.649 C186.2985,36.635 188.432,37.128 190.88,37.128 Z M197.2215,21.37 L185.9965,21.37 L186.064883,21.1406953 C186.244445,20.5807578 186.464383,20.0441953 186.724695,19.5310078 L186.9275,19.1505 C187.4885,18.1475 188.2365,17.34 189.1715,16.728 C190.1065,16.116 191.271,15.81 192.665,15.81 C193.617,15.81 194.433,15.997 195.113,16.371 C195.793,16.745 196.32,17.2805 196.694,17.9775 C197.068,18.6745 197.255,19.533 197.255,20.553 C197.255,20.893 197.238,21.2415 197.204,21.5985 L197.2215,21.37 Z M227.416,47.379 L235.831,11.169 L228.844,11.169 L227.5445,16.709 L227.486255,16.4261633 C227.319898,15.6927347 227.066416,15.0273061 226.725809,14.4298776 L226.5745,14.178 C225.8435,13.022 224.883,12.1465 223.693,11.5515 C222.503,10.9565 221.177,10.659 219.715,10.659 C217.811,10.659 216.077,11.084 214.513,11.934 C212.949,12.784 211.606,13.9485 210.484,15.4275 C209.362,16.9065 208.495,18.598 207.883,20.502 C207.271,22.406 206.965,24.412 206.965,26.52 C206.965,28.73 207.3645,30.6255 208.1635,32.2065 C208.9625,33.7875 210.0675,35.003 211.4785,35.853 C212.8895,36.703 214.479,37.128 216.247,37.128 C218.321,37.128 220.1655,36.4395 221.7805,35.0625 C222.6355,34.3335 223.354706,33.4734706 223.938118,32.4824118 L224.0805,32.231 L220.582,47.379 L227.416,47.379 Z M219.001,31.824 C217.913,31.824 216.9865,31.586 216.2215,31.11 C215.4565,30.634 214.87,29.954 214.462,29.07 C214.054,28.186 213.85,27.132 213.85,25.908 C213.85,24.684 214.02,23.4855 214.36,22.3125 C214.7,21.1395 215.1845,20.077 215.8135,19.125 C216.4425,18.173 217.199,17.4165 218.083,16.8555 C218.967,16.2945 219.97,16.014 221.092,16.014 C222.078,16.014 222.9365,16.2435 223.6675,16.7025 C224.3985,17.1615 224.968,17.816 225.376,18.666 C225.784,19.516 225.988,20.519 225.988,21.675 C225.988,22.967 225.818,24.2165 225.478,25.4235 C225.138,26.6305 224.6535,27.7185 224.0245,28.6875 C223.3955,29.6565 222.656,30.4215 221.806,30.9825 C220.956,31.5435 220.021,31.824 219.001,31.824 Z M245.541,37.128 C247.819,37.128 249.825,36.5245 251.559,35.3175 C252.618667,34.5798889 253.48787,33.6295941 254.166611,32.4666157 L254.3255,32.183 L253.599,36.669 L259.77,36.669 L265.686,11.169 L258.699,11.169 L255.537,24.786 C255.197,26.248 254.7295,27.489 254.1345,28.509 C253.5395,29.529 252.817,30.3025 251.967,30.8295 C251.117,31.3565 250.097,31.62 248.907,31.62 C247.445,31.62 246.3485,31.161 245.6175,30.243 C244.8865,29.325 244.725,27.999 245.133,26.265 L245.133,26.265 L248.601,11.169 L241.614,11.169 L237.942,27.081 C237.466,29.189 237.5085,30.991 238.0695,32.487 C238.6305,33.983 239.5655,35.1305 240.8745,35.9295 C242.1835,36.7285 243.739,37.128 245.541,37.128 Z M279.578,37.128 C281.38,37.128 283.0375,36.89 284.5505,36.414 C286.0635,35.938 287.3895,35.2665 288.5285,34.3995 C289.6675,33.5325 290.56,32.487 291.206,31.263 L291.206,31.263 L285.494,28.713 C284.984,29.665 284.287,30.4555 283.403,31.0845 C282.519,31.7135 281.38,32.028 279.986,32.028 C278.796,32.028 277.759,31.7815 276.875,31.2885 C275.991,30.7955 275.3025,30.0985 274.8095,29.1975 C274.3165,28.2965 274.07,27.217 274.07,25.959 L274.0745,26.214 L292.124,26.214 C292.2872,25.67 292.40688,25.12056 292.48304,24.56568 L292.532,24.1485 C292.6,23.4515 292.634,22.763 292.634,22.083 C292.634,19.737 292.2005,17.714 291.3335,16.014 C290.4665,14.314 289.2085,13.005 287.5595,12.087 C285.9105,11.169 283.913,10.71 281.567,10.71 C278.609,10.71 276.076,11.373 273.968,12.699 C271.86,14.025 270.245,15.81 269.123,18.054 C268.001,20.298 267.44,22.814 267.44,25.602 C267.44,27.846 267.9415,29.835 268.9445,31.569 C269.9475,33.303 271.3585,34.663 273.1775,35.649 C274.9965,36.635 277.13,37.128 279.578,37.128 Z M285.9195,21.37 L274.6945,21.37 L274.762883,21.1406953 C274.942445,20.5807578 275.162383,20.0441953 275.422695,19.5310078 L275.6255,19.1505 C276.1865,18.1475 276.9345,17.34 277.8695,16.728 C278.8045,16.116 279.969,15.81 281.363,15.81 C282.315,15.81 283.131,15.997 283.811,16.371 C284.491,16.745 285.018,17.2805 285.392,17.9775 C285.766,18.6745 285.953,19.533 285.953,20.553 C285.953,20.893 285.936,21.2415 285.902,21.5985 L285.9195,21.37 Z M301.375,36.669 L304.486,23.052 C304.86,21.556 305.353,20.298 305.965,19.278 C306.577,18.258 307.325,17.4845 308.209,16.9575 C309.093,16.4305 310.113,16.167 311.269,16.167 C312.765,16.167 313.8615,16.643 314.5585,17.595 C315.2555,18.547 315.417,19.856 315.043,21.522 L315.043,21.522 L311.524,36.669 L318.511,36.669 L322.183,20.808 C322.659,18.7 322.642,16.8895 322.132,15.3765 C321.622,13.8635 320.721,12.699 319.429,11.883 C318.137,11.067 316.556,10.659 314.686,10.659 C312.408,10.659 310.368,11.271 308.566,12.495 C307.427895,13.2680526 306.513568,14.2648837 305.823019,15.4854931 L305.7555,15.61 L306.475,11.169 L300.304,11.169 L294.388,36.669 L301.375,36.669 Z M338.013,37.128 C340.699,37.128 343.0535,36.5415 345.0765,35.3685 C347.0995,34.1955 348.587,32.555 349.539,30.447 L349.539,30.447 L343.164,28.305 C342.756,29.461 342.093,30.362 341.175,31.008 C340.257,31.654 339.254,31.977 338.166,31.977 C336.976,31.977 335.973,31.7305 335.157,31.2375 C334.341,30.7445 333.7205,30.0475 333.2955,29.1465 C332.8705,28.2455 332.658,27.217 332.658,26.061 C332.658,24.735 332.8195,23.46 333.1425,22.236 C333.4655,21.012 333.95,19.924 334.596,18.972 C335.242,18.02 336.007,17.272 336.891,16.728 C337.775,16.184 338.744,15.912 339.798,15.912 C341.43,15.912 342.6115,16.3625 343.3425,17.2635 C344.0735,18.1645 344.439,19.312 344.439,20.706 L344.439,20.706 L351.273,19.482 C351.103,17.748 350.542,16.218 349.59,14.892 C348.638,13.566 347.3375,12.5375 345.6885,11.8065 C344.0395,11.0755 342.127,10.71 339.951,10.71 C336.993,10.71 334.4515,11.3645 332.3265,12.6735 C330.2015,13.9825 328.578,15.759 327.456,18.003 C326.334,20.247 325.773,22.78 325.773,25.602 C325.773,27.778 326.249,29.7415 327.201,31.4925 C328.153,33.2435 329.5555,34.6205 331.4085,35.6235 C333.2615,36.6265 335.463,37.128 338.013,37.128 Z M362.156,7.497 C363.482,7.497 364.553,7.174 365.369,6.528 C366.185,5.882 366.644,4.828 366.746,3.366 C366.848,2.278 366.542,1.445 365.828,0.867 C365.114,0.289 364.128,-7.10542736e-15 362.87,-7.10542736e-15 C361.544,-7.10542736e-15 360.4815,0.3315 359.6825,0.9945 C358.8835,1.6575 358.433,2.686 358.331,4.08 C358.229,5.202 358.535,6.052 359.249,6.63 C359.963,7.208 360.932,7.497 362.156,7.497 Z M358.433,36.669 L364.349,11.169 L357.362,11.169 L351.446,36.669 L358.433,36.669 Z M371.56,36.669 L374.671,23.052 C375.045,21.556 375.538,20.298 376.15,19.278 C376.762,18.258 377.51,17.4845 378.394,16.9575 C379.278,16.4305 380.298,16.167 381.454,16.167 C382.95,16.167 384.0465,16.643 384.7435,17.595 C385.4405,18.547 385.602,19.856 385.228,21.522 L385.228,21.522 L381.709,36.669 L388.696,36.669 L392.368,20.808 C392.844,18.7 392.827,16.8895 392.317,15.3765 C391.807,13.8635 390.906,12.699 389.614,11.883 C388.322,11.067 386.741,10.659 384.871,10.659 C382.593,10.659 380.553,11.271 378.751,12.495 C377.612895,13.2680526 376.698568,14.2648837 376.008019,15.4854931 L375.9405,15.61 L376.66,11.169 L370.489,11.169 L364.573,36.669 L371.56,36.669 Z M404.679,47.634 C407.127,47.634 409.2945,47.2515 411.1815,46.4865 C413.0685,45.7215 414.6665,44.4805 415.9755,42.7635 C417.2845,41.0465 418.279,38.743 418.959,35.853 L418.959,35.853 L424.722,11.169 L417.735,11.169 L416.4595,16.661 L416.457918,16.6494184 C416.297633,15.8856327 416.043847,15.1919719 415.696561,14.5684362 L415.542,14.3055 C414.794,13.0985 413.8165,12.189 412.6095,11.577 C411.4025,10.965 410.068,10.659 408.606,10.659 C406.736,10.659 405.0275,11.05 403.4805,11.832 C401.9335,12.614 400.599,13.6935 399.477,15.0705 C398.355,16.4475 397.488,18.037 396.876,19.839 C396.264,21.641 395.958,23.579 395.958,25.653 C395.958,27.693 396.366,29.5035 397.182,31.0845 C397.998,32.6655 399.1285,33.8895 400.5735,34.7565 C402.0185,35.6235 403.625,36.057 405.393,36.057 C407.637,36.057 409.541,35.4025 411.105,34.0935 C411.800111,33.5117222 412.394481,32.8308827 412.888111,32.0509815 L413.0535,31.778 L412.074,36.159 C411.728769,37.7282308 411.260414,38.978787 410.668935,39.9106686 L410.5185,40.137 C409.8555,41.089 409.0905,41.769 408.2235,42.177 C407.3565,42.585 406.43,42.789 405.444,42.789 C403.608,42.789 402.3075,42.33 401.5425,41.412 C400.7775,40.494 400.31,39.219 400.14,37.587 L400.14,37.587 L393.102,38.709 C393.238,40.171 393.6205,41.4545 394.2495,42.5595 C394.8785,43.6645 395.72,44.591 396.774,45.339 C397.828,46.087 399.035,46.6565 400.395,47.0475 C401.755,47.4385 403.183,47.634 404.679,47.634 Z M408.249,30.804 C406.515,30.804 405.189,30.26 404.271,29.172 C403.353,28.084 402.894,26.69 402.894,24.99 C402.894,23.392 403.183,21.913 403.761,20.553 C404.339,19.193 405.1465,18.0965 406.1835,17.2635 C407.2205,16.4305 408.453,16.014 409.881,16.014 C410.901,16.014 411.785,16.2435 412.533,16.7025 C413.281,17.1615 413.859,17.8075 414.267,18.6405 C414.675,19.4735 414.879,20.468 414.879,21.624 C414.879,23.256 414.59,24.769 414.012,26.163 C413.434,27.557 412.652,28.679 411.666,29.529 C410.68,30.379 409.541,30.804 408.249,30.804 Z" id="Fluorosequencing" fill="#000000" fill-rule="nonzero"></path>
                <g transform="translate(133.478500, 58.669000)" id="fluoro_labels">
                    <polygon id="Fill-7" fill="#04D30E" points="4.55359395 0 0 25 28.5094578 25 33.0526316 0"></polygon>
                    <polygon id="Fill-7-Copy" fill="#79ACD0" points="45.8693834 0 41.3157895 25 69.8252472 25 74.3684211 0"></polygon>
                    <polygon id="Fill-7-Copy-2" fill="#FF7C00" points="87.1851729 0 82.6315789 25 111.141037 25 115.684211 0"></polygon>
                    <polygon id="Fill-7-Copy-3" fill="#E02020" points="128.500962 0 123.947368 25 152.456826 25 157 0"></polygon>
                </g>
            </g>
        </g>
    </g>
</svg>