<?xml version="1.0" encoding="utf-8"?>
<!-- Generator: Adobe Illustrator 24.2.3, SVG Export Plug-In . SVG Version: 6.00 Build 0)  -->
<svg version="1.1" id="Layer_1" xmlns="http://www.w3.org/2000/svg" xmlns:xlink="http://www.w3.org/1999/xlink" x="0px" y="0px"
	 viewBox="0 0 360 200" style="enable-background:new 0 0 360 200;" xml:space="preserve">
<style type="text/css">
	.st0{fill-opacity:0.85;}
	.st1{fill-rule:evenodd;clip-rule:evenodd;fill:#F7B500;}
	.st2{fill-rule:evenodd;clip-rule:evenodd;fill:#FF7C00;}
	.st3{fill-rule:evenodd;clip-rule:evenodd;fill:#E02020;}
</style>
<g id="website-design">
	<g id="Group-13">
		<g id="Group-12" transform="translate(209.000000, 111.000000)">
			<path id="x46x32x108" class="st0" d="M-31.2-67.1l3.9-6.3l3.9,6.3h5.7l-6.3-9.5l6-9.1h-5.7l-3.6,5.9l-3.6-5.9h-5.7l6,9.1
				l-6.4,9.5H-31.2z M7.2-67.1v-5h2.9v-4H7.2v-15.2H2.5L-8.2-75.7v3.6H2.1v5H7.2z M2.2-76.1h-5.8l4.4-6.7c0.6-0.9,1.1-1.7,1.5-2.6
				l0,0h0.1c0,0.2-0.1,1-0.1,2.3c-0.1,1.3-0.1,2.3-0.1,3V-76.1z M20.6-66.8c2.6,0,4.6-0.8,6.1-2.3s2.2-3.5,2.2-6.1
				c0-2.4-0.6-4.3-1.8-5.6c-1.2-1.3-2.9-2-5.1-2c-2.4,0-4.2,0.9-5.2,2.8l0,0h-0.2c0.1-1.9,0.4-3.4,1-4.4s1.4-1.8,2.5-2.4
				c1.1-0.5,2.5-0.8,4.3-0.8c1,0,1.9,0.1,2.9,0.3l0,0v-4.1c-0.8-0.2-1.9-0.2-3.2-0.2c-4,0-7.1,1.2-9.1,3.5s-3,5.9-3,10.7
				c0,2.2,0.4,4.2,1.1,5.7s1.7,2.8,3.1,3.6C17.6-67.3,18.8-66.8,20.6-66.8z M20.5-70.9c-1.1,0-1.9-0.5-2.6-1.4s-1-2-1-3.3
				c0-0.9,0.4-1.7,1.1-2.4s1.6-1,2.7-1s1.9,0.3,2.5,1s0.8,1.6,0.8,2.8c0,1.4-0.3,2.4-0.9,3.1C22.5-71.4,21.6-70.9,20.5-70.9z
				 M-31.2,0.7l3.9-6.3l3.9,6.3h5.7L-24-8.8l6-9.1h-5.7l-3.6,5.9l-3.6-5.9h-5.7l6,9.1L-37,0.7H-31.2z M-9.3,1c3.1,0,5.5-0.6,7.2-1.9
				S0.4-4,0.4-6.3c0-1.6-0.5-2.9-1.5-3.8s-2.5-1.5-4.4-1.8l0,0V-12c1.7-0.4,2.9-1.1,3.9-2.2c0.9-1.1,1.4-2.3,1.4-3.9
				c0-1.8-0.7-3.2-2.2-4.2s-3.4-1.5-5.9-1.5c-3.1,0-5.7,0.8-7.9,2.4l0,0l2.4,3.5c1-0.7,1.9-1.1,2.7-1.4s1.6-0.4,2.4-0.4
				c2.3,0,3.4,0.9,3.4,2.7c0,1.2-0.4,2-1.3,2.5s-2.2,0.7-4.1,0.7l0,0h-1.9v3.9h1.8c2,0,3.5,0.2,4.4,0.7S-5-7.9-5-6.8
				C-5-5.5-5.4-4.6-6.2-4s-2.1,0.9-3.7,0.9c-1.1,0-2.2-0.1-3.3-0.4s-2.2-0.7-3.1-1.2l0,0v4.4C-14.2,0.6-11.9,1-9.3,1z M20.1,0.7
				v-4.3H9.5v-0.2l3.1-2.9c2.1-1.9,3.5-3.4,4.3-4.4s1.4-2,1.8-3s0.6-2,0.6-3.1c0-1.3-0.3-2.4-1-3.4c-0.6-1-1.5-1.8-2.7-2.3
				c-1.2-0.6-2.5-0.8-4-0.8c-1.1,0-2.2,0.1-3.1,0.3s-1.8,0.5-2.6,1c-0.8,0.4-1.8,1.1-3,2.2l0,0l2.8,3.3c1-0.8,1.9-1.4,2.8-1.8
				s1.8-0.6,2.7-0.6s1.6,0.2,2.1,0.7c0.5,0.5,0.8,1.2,0.8,2.2c0,0.7-0.1,1.3-0.4,1.9s-0.6,1.3-1.2,2s-1.7,2-3.5,3.8l0,0L2.9-2.6V1
				h17.2V0.7z M-31.2,68.5l3.9-6.3l3.9,6.3h5.7L-24,59l6-9.1h-5.7l-3.6,5.9l-3.6-5.9h-5.7l6,9.1l-6.3,9.4L-31.2,68.5L-31.2,68.5z
				 M5.3,68.5V44.3H1.1l-7.8,6.2l2.5,3.1l2.8-2.2c0.3-0.3,0.9-0.8,1.8-1.7l0,0l-0.1,2.5v2.3v14H5.3L5.3,68.5z M20.3,68.8
				c2.9,0,5-1,6.4-3s2.1-5.2,2.1-9.4c0-4.1-0.7-7.2-2.1-9.3s-3.5-3.2-6.3-3.2c-2.9,0-5,1-6.4,3s-2.1,5.2-2.1,9.4
				c0,4.1,0.7,7.2,2.1,9.3C15.4,67.7,17.5,68.8,20.3,68.8z M20.3,64.7c-1.2,0-2.1-0.6-2.6-1.9c-0.5-1.3-0.8-3.4-0.8-6.4
				s0.3-5.1,0.8-6.4c0.5-1.3,1.4-1.9,2.6-1.9s2,0.6,2.6,1.9c0.5,1.3,0.8,3.4,0.8,6.4c0,2.9-0.3,5.1-0.8,6.4
				C22.3,64,21.5,64.7,20.3,64.7z M39.7,68.8c2.5,0,4.6-0.6,6.1-1.8c1.6-1.2,2.3-2.8,2.3-4.8c0-1.3-0.4-2.4-1.2-3.5s-2.1-2.1-3.9-3
				c1.5-0.8,2.6-1.6,3.3-2.6s1-2.1,1-3.3c0-1.8-0.7-3.2-2.1-4.3c-1.4-1.1-3.3-1.6-5.6-1.6s-4.2,0.5-5.6,1.6
				c-1.4,1.1-2.2,2.5-2.2,4.2c0,1.2,0.3,2.3,0.9,3.3s1.6,1.9,3,2.8c-1.6,0.8-2.8,1.8-3.5,2.8s-1.1,2.3-1.1,3.7
				c0,2.1,0.8,3.7,2.3,4.8C34.9,68.2,37,68.8,39.7,68.8z M39.7,53.6c-1.1-0.6-1.9-1.1-2.3-1.6s-0.6-1.1-0.6-1.8
				c0-0.8,0.3-1.3,0.8-1.8c0.5-0.4,1.2-0.7,2.1-0.7s1.6,0.2,2.1,0.7s0.8,1,0.8,1.8c0,0.7-0.2,1.3-0.6,1.8
				C41.5,52.5,40.7,53,39.7,53.6z M39.6,65c-1.1,0-2.1-0.3-2.7-0.8c-0.7-0.5-1-1.3-1-2.2c0-1.7,1.2-3,3.5-4.1c1.4,0.7,2.4,1.4,3,2.1
				c0.6,0.6,0.9,1.3,0.9,2.1c0,0.9-0.3,1.6-0.9,2.2C41.8,64.9,40.9,65,39.6,65z"/>
			<circle id="Oval" class="st1" cx="-83" cy="-76.3" r="24.7"/>
			<circle id="Oval-Copy-4" class="st2" cx="-83" cy="-8.5" r="24.7"/>
			<circle id="Oval-Copy-5" class="st3" cx="-83" cy="59.3" r="24.7"/>
		</g>
	</g>
</g>
</svg>
