<?xml version="1.0" encoding="utf-8"?>
<!-- Generator: Adobe Illustrator 24.2.3, SVG Export Plug-In . SVG Version: 6.00 Build 0)  -->
<svg version="1.1" id="Layer_1" xmlns="http://www.w3.org/2000/svg" xmlns:xlink="http://www.w3.org/1999/xlink" x="0px" y="0px"
	 viewBox="0 0 360 200" style="enable-background:new 0 0 360 200;" xml:space="preserve">
<style type="text/css">
	.st0{fill-rule:evenodd;clip-rule:evenodd;fill:#FF7C00;}
	.st1{fill-rule:evenodd;clip-rule:evenodd;fill:#E02020;}
	.st2{fill-rule:evenodd;clip-rule:evenodd;fill:#F7B500;}
</style>
<g id="website-design">
	<g id="Group-11">
		<g id="image" transform="translate(110.000000, 78.000000)">
			<g id="orange" transform="translate(-5.000000, 1.000000)">
				<g id="ht_dot-copy-382" transform="translate(22.000000, 196.000000)">
					<circle id="ht_dot" class="st0" cx="-79.5" cy="-91" r="6.5"/>
				</g>
				<g id="ht_dot-copy-382_1_" transform="translate(63.000000, 196.000000)">
					<circle id="ht_dot_1_" class="st0" cx="-79.5" cy="-91" r="6.5"/>
				</g>
				<g id="ht_dot-copy-382_2_" transform="translate(104.000000, 196.000000)">
					<circle id="ht_dot_2_" class="st0" cx="-79.5" cy="-91" r="6.5"/>
				</g>
				<g id="ht_dot-copy-382_3_" transform="translate(123.000000, 168.000000)">
					<circle id="ht_dot_3_" class="st0" cx="-79.5" cy="-91" r="6.5"/>
				</g>
				<g id="ht_dot-copy-382_4_" transform="translate(145.000000, 196.000000)">
					<circle id="ht_dot_4_" class="st0" cx="-79.5" cy="-91" r="6.5"/>
				</g>
				<g id="ht_dot-copy-382_5_" transform="translate(205.000000, 168.000000)">
					<circle id="ht_dot_5_" class="st0" cx="-79.5" cy="-91" r="6.5"/>
				</g>
				<g id="ht_dot-copy-382_6_" transform="translate(246.000000, 168.000000)">
					<circle id="ht_dot_6_" class="st0" cx="-79.5" cy="-91" r="6.5"/>
				</g>
				<g id="ht_dot-copy-382_7_" transform="translate(309.000000, 196.000000)">
					<circle id="ht_dot_7_" class="st0" cx="-79.5" cy="-91" r="6.5"/>
				</g>
				<g id="ht_dot-copy-382_8_" transform="translate(0.000000, 112.000000)">
					<circle id="ht_dot_8_" class="st0" cx="-79.5" cy="-91" r="6.5"/>
				</g>
				<g id="ht_dot-copy-382_9_" transform="translate(22.000000, 140.000000)">
					<circle id="ht_dot_9_" class="st0" cx="-79.5" cy="-91" r="6.5"/>
				</g>
				<g id="ht_dot-copy-382_10_" transform="translate(63.000000, 140.000000)">
					<circle id="ht_dot_10_" class="st0" cx="-79.5" cy="-91" r="6.5"/>
				</g>
				<g id="ht_dot-copy-382_11_" transform="translate(145.000000, 140.000000)">
					<circle id="ht_dot_11_" class="st0" cx="-79.5" cy="-91" r="6.5"/>
				</g>
				<g id="ht_dot-copy-382_12_" transform="translate(186.000000, 140.000000)">
					<circle id="ht_dot_12_" class="st0" cx="-79.5" cy="-91" r="6.5"/>
				</g>
				<g id="ht_dot-copy-382_13_" transform="translate(227.000000, 140.000000)">
					<circle id="ht_dot_13_" class="st0" cx="-79.5" cy="-91" r="6.5"/>
				</g>
				<g id="ht_dot-copy-382_14_" transform="translate(0.000000, 56.000000)">
					<circle id="ht_dot_14_" class="st0" cx="-79.5" cy="-91" r="6.5"/>
				</g>
				<g id="ht_dot-copy-382_15_" transform="translate(41.000000, 56.000000)">
					<circle id="ht_dot_15_" class="st0" cx="-79.5" cy="-91" r="6.5"/>
				</g>
				<g id="ht_dot-copy-382_16_" transform="translate(63.000000, 84.000000)">
					<circle id="ht_dot_16_" class="st0" cx="-79.5" cy="-91" r="6.5"/>
				</g>
				<g id="ht_dot-copy-382_17_" transform="translate(104.000000, 84.000000)">
					<circle id="ht_dot_17_" class="st0" cx="-79.5" cy="-91" r="6.5"/>
				</g>
				<g id="ht_dot-copy-382_18_" transform="translate(205.000000, 56.000000)">
					<circle id="ht_dot_18_" class="st0" cx="-79.5" cy="-91" r="6.5"/>
				</g>
				<g id="ht_dot-copy-382_19_" transform="translate(227.000000, 84.000000)">
					<circle id="ht_dot_19_" class="st0" cx="-79.5" cy="-91" r="6.5"/>
				</g>
				<g id="ht_dot-copy-382_20_" transform="translate(268.000000, 84.000000)">
					<circle id="ht_dot_20_" class="st0" cx="-79.5" cy="-91" r="6.5"/>
				</g>
				<g id="ht_dot-copy-382_21_" transform="translate(287.000000, 56.000000)">
					<circle id="ht_dot_21_" class="st0" cx="-79.5" cy="-91" r="6.5"/>
				</g>
				<g id="ht_dot-copy-382_25_" transform="translate(186.000000, 28.000000)">
					<circle id="ht_dot_25_" class="st0" cx="-79.5" cy="-91" r="6.5"/>
				</g>
				<g id="ht_dot-copy-382_26_" transform="translate(227.000000, 28.000000)">
					<circle id="ht_dot_26_" class="st0" cx="-79.5" cy="-91" r="6.5"/>
				</g>
				<g id="ht_dot-copy-382_27_" transform="translate(268.000000, 28.000000)">
					<circle id="ht_dot_27_" class="st0" cx="-79.5" cy="-91" r="6.5"/>
				</g>
				<g id="ht_dot-copy-382_28_" transform="translate(309.000000, 28.000000)">
					<circle id="ht_dot_28_" class="st0" cx="-79.5" cy="-91" r="6.5"/>
				</g>
			</g>
			<g id="red" transform="translate(-5.000000, 1.000000)">
				<g id="ht_dot-copy-383" transform="translate(0.000000, 168.000000)">
					<circle id="ht_dot_29_" class="st1" cx="-79.5" cy="-91" r="6.5"/>
				</g>
				<g id="ht_dot-copy-383_1_" transform="translate(268.000000, 196.000000)">
					<circle id="ht_dot_30_" class="st1" cx="-79.5" cy="-91" r="6.5"/>
				</g>
				<g id="ht_dot-copy-383_2_" transform="translate(41.000000, 112.000000)">
					<circle id="ht_dot_31_" class="st1" cx="-79.5" cy="-91" r="6.5"/>
				</g>
				<g id="ht_dot-copy-383_3_" transform="translate(82.000000, 112.000000)">
					<circle id="ht_dot_32_" class="st1" cx="-79.5" cy="-91" r="6.5"/>
				</g>
				<g id="ht_dot-copy-383_4_" transform="translate(246.000000, 112.000000)">
					<circle id="ht_dot_33_" class="st1" cx="-79.5" cy="-91" r="6.5"/>
				</g>
				<g id="ht_dot-copy-383_5_" transform="translate(268.000000, 140.000000)">
					<circle id="ht_dot_34_" class="st1" cx="-79.5" cy="-91" r="6.5"/>
				</g>
				<g id="ht_dot-copy-383_6_" transform="translate(309.000000, 140.000000)">
					<circle id="ht_dot_35_" class="st1" cx="-79.5" cy="-91" r="6.5"/>
				</g>
				<g id="ht_dot-copy-383_7_" transform="translate(22.000000, 84.000000)">
					<circle id="ht_dot_36_" class="st1" cx="-79.5" cy="-91" r="6.5"/>
				</g>
				<g id="ht_dot-copy-383_8_" transform="translate(82.000000, 56.000000)">
					<circle id="ht_dot_37_" class="st1" cx="-79.5" cy="-91" r="6.5"/>
				</g>
				<g id="ht_dot-copy-383_9_" transform="translate(309.000000, 84.000000)">
					<circle id="ht_dot_38_" class="st1" cx="-79.5" cy="-91" r="6.5"/>
				</g>
				<g id="ht_dot-copy-383_10_" transform="translate(104.000000, 28.000000)">
					<circle id="ht_dot_39_" class="st1" cx="-79.5" cy="-91" r="6.5"/>
				</g>
				<g id="ht_dot-copy-383_12_" transform="translate(82.000000, 168.000000)">
					<circle id="ht_dot_41_" class="st1" cx="-79.5" cy="-91" r="6.5"/>
				</g>
				<g id="ht_dot-copy-383_13_" transform="translate(186.000000, 196.000000)">
					<circle id="ht_dot_42_" class="st1" cx="-79.5" cy="-91" r="6.5"/>
				</g>
				<g id="ht_dot-copy-383_14_" transform="translate(287.000000, 168.000000)">
					<circle id="ht_dot_43_" class="st1" cx="-79.5" cy="-91" r="6.5"/>
				</g>
				<g id="ht_dot-copy-383_15_" transform="translate(205.000000, 112.000000)">
					<circle id="ht_dot_44_" class="st1" cx="-79.5" cy="-91" r="6.5"/>
				</g>
				<g id="ht_dot-copy-383_16_" transform="translate(145.000000, 84.000000)">
					<circle id="ht_dot_45_" class="st1" cx="-79.5" cy="-91" r="6.5"/>
				</g>
				<g id="ht_dot-copy-383_17_" transform="translate(164.000000, 56.000000)">
					<circle id="ht_dot_46_" class="st1" cx="-79.5" cy="-91" r="6.5"/>
				</g>
			</g>
			<g id="Group-5" transform="translate(17.000000, 1.000000)">
				<g id="ht_dot-copy-381" transform="translate(19.000000, 168.000000)">
					<circle id="ht_dot_49_" class="st2" cx="-79.5" cy="-91" r="6.5"/>
				</g>
				<g id="ht_dot-copy-381_1_" transform="translate(142.000000, 168.000000)">
					<circle id="ht_dot_50_" class="st2" cx="-79.5" cy="-91" r="6.5"/>
				</g>
				<g id="ht_dot-copy-381_2_" transform="translate(205.000000, 196.000000)">
					<circle id="ht_dot_51_" class="st2" cx="-79.5" cy="-91" r="6.5"/>
				</g>
				<g id="ht_dot-copy-381_3_" transform="translate(82.000000, 140.000000)">
					<circle id="ht_dot_52_" class="st2" cx="-79.5" cy="-91" r="6.5"/>
				</g>
				<g id="ht_dot-copy-381_4_" transform="translate(101.000000, 112.000000)">
					<circle id="ht_dot_53_" class="st2" cx="-79.5" cy="-91" r="6.5"/>
				</g>
				<g id="ht_dot-copy-381_5_" transform="translate(142.000000, 112.000000)">
					<circle id="ht_dot_54_" class="st2" cx="-79.5" cy="-91" r="6.5"/>
				</g>
				<g id="ht_dot-copy-381_6_" transform="translate(265.000000, 112.000000)">
					<circle id="ht_dot_55_" class="st2" cx="-79.5" cy="-91" r="6.5"/>
				</g>
				<g id="ht_dot-copy-381_7_" transform="translate(101.000000, 56.000000)">
					<circle id="ht_dot_56_" class="st2" cx="-79.5" cy="-91" r="6.5"/>
				</g>
				<g id="ht_dot-copy-381_8_" transform="translate(164.000000, 84.000000)">
					<circle id="ht_dot_57_" class="st2" cx="-79.5" cy="-91" r="6.5"/>
				</g>
				<g id="ht_dot-copy-381_9_" transform="translate(224.000000, 56.000000)">
					<circle id="ht_dot_58_" class="st2" cx="-79.5" cy="-91" r="6.5"/>
				</g>
				<g id="ht_dot-copy-381_10_" transform="translate(0.000000, 28.000000)">
					<circle id="ht_dot_59_" class="st2" cx="-79.5" cy="-91" r="6.5"/>
				</g>
				<g id="ht_dot-copy-381_11_" transform="translate(41.000000, 28.000000)">
					<circle id="ht_dot_60_" class="st2" cx="-79.5" cy="-91" r="6.5"/>
				</g>
				<g id="ht_dot-copy-381_12_" transform="translate(123.000000, 28.000000)">
					<circle id="ht_dot_61_" class="st2" cx="-79.5" cy="-91" r="6.5"/>
				</g>
			</g>
		</g>
	</g>
</g>
</svg>
