<?xml version="1.0" encoding="utf-8"?>
<!-- Generator: Adobe Illustrator 24.2.3, SVG Export Plug-In . SVG Version: 6.00 Build 0)  -->
<svg version="1.1" id="Layer_1" xmlns="http://www.w3.org/2000/svg" xmlns:xlink="http://www.w3.org/1999/xlink" x="0px" y="0px"
	 viewBox="0 0 530 366" style="enable-background:new 0 0 530 366;" xml:space="preserve">
<style type="text/css">
	.st0{fill-opacity:0.85;}
	.st1{fill-rule:evenodd;clip-rule:evenodd;fill:#F7B500;}
	.st2{fill-rule:evenodd;clip-rule:evenodd;fill:#FF7C00;}
	.st3{fill-rule:evenodd;clip-rule:evenodd;fill:#E02020;}
</style>
<g id="website-design">
	<g id="Group-13">
		<g id="Group-12" transform="translate(209.000000, 111.000000)">
			<path id="x46x32x108" class="st0" d="M53.8,15.9l3.9-6.3l3.9,6.3h5.7L61,6.4l6-9.1h-5.7l-3.6,5.9l-3.6-5.9h-5.7l6,9.1L48,15.9
				H53.8z M92.2,15.9v-5h2.9v-4h-2.9V-8.3h-4.7L76.8,7.3v3.6h10.3v5H92.2z M87.2,6.9h-5.8l4.4-6.7c0.6-0.9,1.1-1.7,1.5-2.6l0,0h0.1
				c0,0.2-0.1,1-0.1,2.3c-0.1,1.3-0.1,2.3-0.1,3V6.9z M105.6,16.2c2.6,0,4.6-0.8,6.1-2.3s2.2-3.5,2.2-6.1c0-2.4-0.6-4.3-1.8-5.6
				s-2.9-2-5.1-2c-2.4,0-4.2,0.9-5.2,2.8l0,0h-0.2c0.1-1.9,0.4-3.4,1-4.4s1.4-1.8,2.5-2.4c1.1-0.5,2.5-0.8,4.3-0.8
				c1,0,1.9,0.1,2.9,0.3l0,0v-4.1c-0.8-0.2-1.9-0.2-3.2-0.2c-4,0-7.1,1.2-9.1,3.5s-3,5.9-3,10.7c0,2.2,0.4,4.2,1.1,5.7
				s1.7,2.8,3.1,3.6S103.8,16.2,105.6,16.2z M105.5,12.1c-1.1,0-1.9-0.5-2.6-1.4c-0.7-0.9-1-2-1-3.3c0-0.9,0.4-1.7,1.1-2.4
				c0.7-0.7,1.6-1,2.7-1c1.1,0,1.9,0.3,2.5,1s0.8,1.6,0.8,2.8c0,1.4-0.3,2.4-0.9,3.1S106.6,12.1,105.5,12.1z M53.8,83.7l3.9-6.3
				l3.9,6.3h5.7L61,74.2l6-9.1h-5.7l-3.6,5.9l-3.6-5.9h-5.7l6,9.1L48,83.7H53.8z M75.7,84c3.1,0,5.5-0.6,7.2-1.9
				c1.7-1.3,2.5-3.1,2.5-5.4c0-1.6-0.5-2.9-1.5-3.8s-2.5-1.5-4.4-1.8l0,0v-0.1c1.7-0.4,2.9-1.1,3.9-2.2c0.9-1.1,1.4-2.3,1.4-3.9
				c0-1.8-0.7-3.2-2.2-4.2s-3.4-1.5-5.9-1.5c-3.1,0-5.7,0.8-7.9,2.4l0,0l2.4,3.5c1-0.7,1.9-1.1,2.7-1.4s1.6-0.4,2.4-0.4
				c2.3,0,3.4,0.9,3.4,2.7c0,1.2-0.4,2-1.3,2.5c-0.9,0.5-2.2,0.7-4.1,0.7l0,0h-1.9v3.9h1.8c2,0,3.5,0.2,4.4,0.7
				c0.9,0.5,1.4,1.3,1.4,2.4c0,1.3-0.4,2.2-1.2,2.8c-0.8,0.6-2.1,0.9-3.7,0.9c-1.1,0-2.2-0.1-3.3-0.4c-1.1-0.3-2.2-0.7-3.1-1.2l0,0
				v4.4C70.8,83.6,73.1,84,75.7,84z M105.1,83.7v-4.3H94.5v-0.2l3.1-2.9c2.1-1.9,3.5-3.4,4.3-4.4s1.4-2,1.8-3c0.4-1,0.6-2,0.6-3.1
				c0-1.3-0.3-2.4-1-3.4c-0.6-1-1.5-1.8-2.7-2.3c-1.2-0.6-2.5-0.8-4-0.8c-1.1,0-2.2,0.1-3.1,0.3s-1.8,0.5-2.6,1
				c-0.8,0.4-1.8,1.1-3,2.2l0,0l2.8,3.3c1-0.8,1.9-1.4,2.8-1.8c0.9-0.4,1.8-0.6,2.7-0.6c0.9,0,1.6,0.2,2.1,0.7
				c0.5,0.5,0.8,1.2,0.8,2.2c0,0.7-0.1,1.3-0.4,1.9s-0.6,1.3-1.2,2c-0.6,0.7-1.7,2-3.5,3.8l0,0l-6.1,6.1v3.6H105.1z M53.8,151.5
				l3.9-6.3l3.9,6.3h5.7L61,142l6-9.1h-5.7l-3.6,5.9l-3.6-5.9h-5.7l6,9.1l-6.3,9.4H53.8z M90.3,151.5v-24.2h-4.2l-7.8,6.2l2.5,3.1
				l2.8-2.2c0.3-0.3,0.9-0.8,1.8-1.7l0,0l-0.1,2.5l0,2.3v14H90.3z M105.3,151.8c2.9,0,5-1,6.4-3c1.4-2,2.1-5.2,2.1-9.4
				c0-4.1-0.7-7.2-2.1-9.3c-1.4-2.1-3.5-3.2-6.3-3.2c-2.9,0-5,1-6.4,3c-1.4,2-2.1,5.2-2.1,9.4c0,4.1,0.7,7.2,2.1,9.3
				C100.4,150.7,102.5,151.8,105.3,151.8z M105.3,147.7c-1.2,0-2.1-0.6-2.6-1.9c-0.5-1.3-0.8-3.4-0.8-6.4c0-3,0.3-5.1,0.8-6.4
				c0.5-1.3,1.4-1.9,2.6-1.9c1.2,0,2,0.6,2.6,1.9c0.5,1.3,0.8,3.4,0.8,6.4c0,2.9-0.3,5.1-0.8,6.4C107.3,147,106.5,147.7,105.3,147.7
				z M124.7,151.8c2.5,0,4.6-0.6,6.1-1.8c1.6-1.2,2.3-2.8,2.3-4.8c0-1.3-0.4-2.4-1.2-3.5c-0.8-1.1-2.1-2.1-3.9-3
				c1.5-0.8,2.6-1.6,3.3-2.6c0.7-1,1-2.1,1-3.3c0-1.8-0.7-3.2-2.1-4.3c-1.4-1.1-3.3-1.6-5.6-1.6c-2.3,0-4.2,0.5-5.6,1.6
				c-1.4,1.1-2.2,2.5-2.2,4.2c0,1.2,0.3,2.3,0.9,3.3c0.6,1,1.6,1.9,3,2.8c-1.6,0.8-2.8,1.8-3.5,2.8s-1.1,2.3-1.1,3.7
				c0,2.1,0.8,3.7,2.3,4.8C119.9,151.2,122,151.8,124.7,151.8z M124.7,136.6c-1.1-0.6-1.9-1.1-2.3-1.6c-0.4-0.5-0.6-1.1-0.6-1.8
				c0-0.8,0.3-1.3,0.8-1.8c0.5-0.4,1.2-0.7,2.1-0.7c0.9,0,1.6,0.2,2.1,0.7s0.8,1,0.8,1.8c0,0.7-0.2,1.3-0.6,1.8
				C126.5,135.5,125.7,136,124.7,136.6z M124.6,148c-1.1,0-2.1-0.3-2.7-0.8c-0.7-0.5-1-1.3-1-2.2c0-1.7,1.2-3,3.5-4.1
				c1.4,0.7,2.4,1.4,3,2.1c0.6,0.6,0.9,1.3,0.9,2.1c0,0.9-0.3,1.6-0.9,2.2S125.9,148,124.6,148z"/>
			<circle id="Oval" class="st1" cx="2" cy="6.7" r="24.7"/>
			<circle id="Oval-Copy-4" class="st2" cx="2" cy="74.5" r="24.7"/>
			<circle id="Oval-Copy-5" class="st3" cx="2" cy="142.3" r="24.7"/>
		</g>
	</g>
</g>
</svg>
