<?xml version="1.0" encoding="utf-8"?>
<!-- Generator: Adobe Illustrator 24.2.3, SVG Export Plug-In . SVG Version: 6.00 Build 0)  -->
<svg version="1.1" id="Layer_1" xmlns="http://www.w3.org/2000/svg" xmlns:xlink="http://www.w3.org/1999/xlink" x="0px" y="0px"
	 viewBox="0 0 360 200" style="enable-background:new 0 0 360 200;" xml:space="preserve">
<style type="text/css">
	.st0{fill-rule:evenodd;clip-rule:evenodd;fill:#E02020;}
	.st1{fill-rule:evenodd;clip-rule:evenodd;fill:#04D30E;}
</style>
<g id="website-design">
	<g id="Group-10">
		<g id="Group-8" transform="translate(112.000000, 105.000000)">
			<g id="ht_dot-copy-381" transform="translate(0.000000, 126.468900)">
				<ellipse id="ht_dot" class="st0" cx="-70.3" cy="-68.3" rx="14.7" ry="14.7"/>
			</g>
			<g id="ht_dot-copy-381_1_" transform="translate(0.000000, -0.000000)">
				<ellipse id="ht_dot_1_" class="st0" cx="-70.3" cy="-68.3" rx="14.7" ry="14.7"/>
			</g>
			<g id="ht_dot-copy-381_2_" transform="translate(92.695652, -0.000000)">
				<ellipse id="ht_dot_2_" class="st0" cx="-70.3" cy="-68.3" rx="14.7" ry="14.7"/>
			</g>
			<g id="ht_dot-copy-380" transform="translate(142.434783, 63.234450)">
				<ellipse id="ht_dot_3_" class="st1" cx="-70.3" cy="-68.3" rx="14.7" ry="14.7"/>
			</g>
			<g id="ht_dot-copy-378" transform="translate(235.130435, 63.234450)">
				<ellipse id="ht_dot_4_" class="st0" cx="-70.3" cy="-68.3" rx="14.7" ry="14.7"/>
			</g>
			<g id="ht_dot-copy-381_3_" transform="translate(92.695652, 126.468900)">
				<ellipse id="ht_dot_5_" class="st0" cx="-70.3" cy="-68.3" rx="14.7" ry="14.7"/>
			</g>
			<g id="ht_dot-copy-379" transform="translate(185.391304, 126.468900)">
				<ellipse id="ht_dot_6_" class="st0" cx="-70.3" cy="-68.3" rx="14.7" ry="14.7"/>
			</g>
			<g id="ht_dot-copy-378_1_" transform="translate(49.739130, 63.234450)">
				<ellipse id="ht_dot_7_" class="st0" cx="-70.3" cy="-68.3" rx="14.7" ry="14.7"/>
			</g>
			<g id="ht_dot-copy-379_1_" transform="translate(185.391304, -0.000000)">
				<ellipse id="ht_dot_8_" class="st0" cx="-70.3" cy="-68.3" rx="14.7" ry="14.7"/>
			</g>
			<g id="ht_dot-copy-377" transform="translate(277.521583, 126.468900)">
				<ellipse id="ht_dot_9_" class="st0" cx="-70.3" cy="-68.3" rx="14.7" ry="14.7"/>
			</g>
			<g id="ht_dot-copy-377_1_" transform="translate(277.521583, -0.000000)">
				<ellipse id="ht_dot_10_" class="st0" cx="-70.3" cy="-68.3" rx="14.7" ry="14.7"/>
			</g>
		</g>
	</g>
</g>
</svg>
