<?xml version="1.0" encoding="UTF-8"?>
<svg width="150px" height="150px" viewBox="0 0 150 150" version="1.1" xmlns="http://www.w3.org/2000/svg" xmlns:xlink="http://www.w3.org/1999/xlink">
    <title>Group 9</title>
    <g id="website-design" stroke="none" stroke-width="1" fill="none" fill-rule="evenodd">
        <g id="Group-9">
            <rect id="Rectangle" fill-opacity="0" fill="#000000" x="0" y="0" width="150" height="150"></rect>
            <g id="peeps" transform="translate(20.000000, 27.000000)">
                <path d="M109.5,35.5 L109.500001,48.3315045 C109.497794,50.1419233 109.361419,51.8089551 108.614386,52.9243174 C107.949874,53.91647 106.685669,54.2272645 104.7,53.8360203 L104.7,53.8360203 L104.7,75.5 L93.3,75.5 L93.3,53.8370669 C91.3123416,54.226158 90.0458319,53.9169851 89.3810805,52.9244742 C88.6347701,51.8101914 88.5,50.1444839 88.5,48.3333333 L88.5,48.3333333 L88.5,35.5 L109.5,35.5 Z" id="Stroke-2490-Copy" stroke="#FFFFFF" stroke-width="3" fill="#96E1FF"></path>
                <path d="M98.5,11.5 C100.168435,11.5 101.683544,12.1251366 102.779023,13.1475829 C103.835732,14.1338453 104.5,15.4931407 104.5,17 C104.5,18.5068593 103.835732,19.8661547 102.779023,20.8524171 C101.683544,21.8748634 100.168435,22.5 98.5,22.5 C96.8315649,22.5 95.3164556,21.8748634 94.2209774,20.8524171 C93.1642677,19.8661547 92.5,18.5068593 92.5,17 C92.5,15.4931407 93.1642677,14.1338453 94.2209774,13.1475829 C95.3164556,12.1251366 96.8315649,11.5 98.5,11.5 Z" id="Stroke-2493-Copy" stroke="#FFFFFF" stroke-width="3" fill="#96E1FF"></path>
                <path d="M22.5000001,35.5 L22.5000011,48.3315045 C22.4977938,50.1419233 22.3614192,51.8089551 21.6143858,52.9243174 C20.9498743,53.91647 19.6856686,54.2272645 17.7,53.8360203 L17.7,53.8360203 L17.7,75.5 L6.3,75.5 L6.3,53.8370669 C4.31234161,54.226158 3.04583194,53.9169851 2.38108046,52.9244742 C1.63477012,51.8101914 1.5,50.1444839 1.5,48.3333333 L1.5,48.3333333 L1.5,35.5 L22.5000001,35.5 Z" id="Stroke-2489-Copy" stroke="#FFFFFF" stroke-width="3" fill="#96E1FF"></path>
                <path d="M11.5,11.5 C13.1684351,11.5 14.6835444,12.1251366 15.7790226,13.1475829 C16.8357323,14.1338453 17.5,15.4931407 17.5,17 C17.5,18.5068593 16.8357323,19.8661547 15.7790226,20.8524171 C14.6835444,21.8748634 13.1684351,22.5 11.5,22.5 C9.83156487,22.5 8.31645559,21.8748634 7.22097738,20.8524171 C6.16426769,19.8661547 5.5,18.5068593 5.5,17 C5.5,15.4931407 6.16426769,14.1338453 7.22097738,13.1475829 C8.31645559,12.1251366 9.83156487,11.5 11.5,11.5 Z" id="Stroke-2492-Copy" stroke="#FFFFFF" stroke-width="3" fill="#96E1FF"></path>
                <path d="M0,34 L0,48.3333333 C0,52.275 0.84,55.5 4.8,55.5 L4.8,77 L19.2,77 L19.2,55.5 C23.1552,55.5 23.9952,52.2702222 24,48.3333333 L24,34 L0,34 L0,34 Z" id="Stroke-2489" stroke="#003264" stroke-width="2" stroke-linejoin="round"></path>
                <path d="M87,34 L87,48.3333333 C87,52.275 87.84,55.5 91.8,55.5 L91.8,77 L106.2,77 L106.2,55.5 C110.1552,55.5 110.9952,52.2702222 111,48.3333333 L111,34 L87,34 L87,34 Z" id="Stroke-2490" stroke="#003264" stroke-width="2" stroke-linejoin="round"></path>
                <path d="M70.5,35.5 L70.5,58.2307692 C70.5,60.4832691 69.5745537,62.529883 68.0869703,64.0141008 C66.2742878,65.8226823 63.6250886,66.7982788 60.7857143,66.2882512 L60.7857143,66.2882512 L60.7857143,95.5 L49.2142857,95.5 L49.2142857,66.2885745 C46.3724792,66.7977129 43.7241271,65.8229182 41.9124079,64.015298 C40.4246952,62.5309512 39.5,60.4838053 39.5,58.2307692 L39.5,58.2307692 L39.5,35.5 L70.5,35.5 Z" id="Stroke-2491-Copy" stroke="#FFFFFF" stroke-width="3" fill="#FF7C00"></path>
                <path d="M38,34 L72,34 L72,58.2307692 C72,63.5615385 67.6285714,67.9230769 62.2857143,67.9230769 L62.2857143,97 L47.7142857,97 L47.7142857,67.9230769 C42.3665714,67.9230769 38,63.5615385 38,58.2307692 L38,34 L38,34 Z" id="Stroke-2491" stroke="#003264" stroke-width="2" stroke-linejoin="round"></path>
                <path d="M19,17 C19,20.864 15.64,24 11.5,24 C7.36,24 4,20.864 4,17 C4,13.136 7.36,10 11.5,10 C15.64,10 19,13.136 19,17 L19,17 Z" id="Stroke-2492" stroke="#003264" stroke-width="2" stroke-linejoin="round"></path>
                <path d="M106,17 C106,20.864 102.64,24 98.5,24 C94.36,24 91,20.864 91,17 C91,13.136 94.36,10 98.5,10 C102.64,10 106,13.136 106,17 L106,17 Z" id="Stroke-2493" stroke="#003264" stroke-width="2" stroke-linejoin="round"></path>
                <path d="M55,1.5 C57.9001,1.5 60.5251482,2.67486858 62.4251398,4.57486017 C64.3251314,6.47485176 65.5,9.0999 65.5,12 C65.5,14.9001 64.3251314,17.5251482 62.4251398,19.4251398 C60.5251482,21.3251314 57.9001,22.5 55,22.5 C52.0999,22.5 49.4748518,21.3251314 47.5748602,19.4251398 C45.6748686,17.5251482 44.5,14.9001 44.5,12 C44.5,9.0999 45.6748686,6.47485176 47.5748602,4.57486017 C49.4748518,2.67486858 52.0999,1.5 55,1.5 Z" id="Stroke-2494-Copy" stroke="#FFFFFF" stroke-width="3" fill="#FF7C00"></path>
                <path d="M67,12 C67,18.6288 61.6288,24 55,24 C48.3712,24 43,18.6288 43,12 C43,5.3712 48.3712,0 55,0 C61.6288,0 67,5.3712 67,12 L67,12 Z" id="Stroke-2494" stroke="#003264" stroke-width="2" stroke-linejoin="round"></path>
            </g>
        </g>
    </g>
</svg>