<?xml version="1.0" encoding="UTF-8"?>
<svg width="150px" height="150px" viewBox="0 0 150 150" version="1.1" xmlns="http://www.w3.org/2000/svg" xmlns:xlink="http://www.w3.org/1999/xlink">
    <title>Group 10</title>
    <g id="website-design" stroke="none" stroke-width="1" fill="none" fill-rule="evenodd">
        <g id="Group-10">
            <rect id="Rectangle" fill-opacity="0" fill="#000000" x="0" y="0" width="150" height="150"></rect>
            <g id="Group-3" transform="translate(18.000000, 30.000000)">
                <path d="M13,28 L32,28 L32,57.5 C32,62.7467051 27.7467051,67 22.5,67 C17.2532949,67 13,62.7467051 13,57.5 L13,28 L13,28 Z" id="Rectangle" fill="#96E1FF"></path>
                <path d="M48,28 L67,28 L67,57.5 C67,62.7467051 62.7467051,67 57.5,67 C52.2532949,67 48,62.7467051 48,57.5 L48,28 L48,28 Z" id="Rectangle-Copy" fill="#96E1FF"></path>
                <path d="M83,28 L102,28 L102,57.5 C102,62.7467051 97.7467051,67 92.5,67 C87.2532949,67 83,62.7467051 83,57.5 L83,28 L83,28 Z" id="Rectangle-Copy-2" fill="#FF7C00"></path>
                <g id="test_tubes">
                    <path d="M0,20 L0,70 C0,81.045 8.955,90 20,90 L95,90 C106.045,90 115,81.045 115,70 L115,20" id="Stroke-9692" stroke="#003264" stroke-width="2" stroke-linecap="round" stroke-linejoin="round"></path>
                    <path d="M35,57.5 C35,64.405 29.405,70 22.5,70 C15.595,70 10,64.405 10,57.5 L10,0 L35,0 L35,57.5 L35,57.5 Z" id="Stroke-9693" stroke="#003264" stroke-width="2" stroke-linecap="round" stroke-linejoin="round"></path>
                    <path d="M70,57.5 C70,64.405 64.405,70 57.5,70 C50.595,70 45,64.405 45,57.5 L45,0 L70,0 L70,57.5 L70,57.5 Z" id="Stroke-9694" stroke="#003264" stroke-width="2" stroke-linecap="round" stroke-linejoin="round"></path>
                    <path d="M105,57.5 C105,64.405 99.405,70 92.5,70 C85.595,70 80,64.405 80,57.5 L80,0 L105,0 L105,57.5 L105,57.5 Z" id="Stroke-9695" stroke="#003264" stroke-width="2" stroke-linecap="round" stroke-linejoin="round"></path>
                    <line x1="0" y1="35" x2="10" y2="35" id="Stroke-9696" stroke="#003264" stroke-width="2" stroke-linecap="round" stroke-linejoin="round"></line>
                    <line x1="35" y1="35" x2="45" y2="35" id="Stroke-9697" stroke="#003264" stroke-width="2" stroke-linecap="round" stroke-linejoin="round"></line>
                    <line x1="105" y1="35" x2="115" y2="35" id="Stroke-9699" stroke="#003264" stroke-width="2" stroke-linecap="round" stroke-linejoin="round"></line>
                    <path d="M24.5,52 C23.12,52 22,53.12 22,54.5 C22,55.88 23.12,57 24.5,57 C25.88,57 27,55.88 27,54.5 C27,53.12 25.88,52 24.5,52" id="Fill-9700" fill="#003264"></path>
                    <path d="M24.5,37 C23.12,37 22,38.12 22,39.5 C22,40.88 23.12,42 24.5,42 C25.88,42 27,40.88 27,39.5 C27,38.12 25.88,37 24.5,37" id="Fill-9701" fill="#003264"></path>
                    <path d="M19.5,32 C18.12,32 17,33.12 17,34.5 C17,35.88 18.12,37 19.5,37 C20.88,37 22,35.88 22,34.5 C22,33.12 20.88,32 19.5,32" id="Fill-9702" fill="#003264"></path>
                    <path d="M54.5,32 C53.12,32 52,33.12 52,34.5 C52,35.88 53.12,37 54.5,37 C55.88,37 57,35.88 57,34.5 C57,33.12 55.88,32 54.5,32" id="Fill-9703" fill="#003264"></path>
                    <path d="M59.5,47 C58.12,47 57,48.12 57,49.5 C57,50.88 58.12,52 59.5,52 C60.88,52 62,50.88 62,49.5 C62,48.12 60.88,47 59.5,47" id="Fill-9704" fill="#003264"></path>
                    <path d="M54.5,57 C53.12,57 52,58.12 52,59.5 C52,60.88 53.12,62 54.5,62 C55.88,62 57,60.88 57,59.5 C57,58.12 55.88,57 54.5,57" id="Fill-9705" fill="#003264"></path>
                    <path d="M89.5,47 C88.12,47 87,48.12 87,49.5 C87,50.88 88.12,52 89.5,52 C90.88,52 92,50.88 92,49.5 C92,48.12 90.88,47 89.5,47" id="Fill-9706" fill="#003264"></path>
                    <path d="M94.5,37 C93.12,37 92,38.12 92,39.5 C92,40.88 93.12,42 94.5,42 C95.88,42 97,40.88 97,39.5 C97,38.12 95.88,37 94.5,37" id="Fill-9707" fill="#003264"></path>
                    <path d="M94.5,57 C93.12,57 92,58.12 92,59.5 C92,60.88 93.12,62 94.5,62 C95.88,62 97,60.88 97,59.5 C97,58.12 95.88,57 94.5,57" id="Fill-9708" fill="#003264"></path>
                    <line x1="10" y1="25" x2="35" y2="25" id="Stroke-9709" stroke="#003264" stroke-width="2" stroke-linecap="round" stroke-linejoin="round"></line>
                    <line x1="45" y1="25" x2="70" y2="25" id="Stroke-9710" stroke="#003264" stroke-width="2" stroke-linecap="round" stroke-linejoin="round"></line>
                    <line x1="80" y1="25" x2="105" y2="25" id="Stroke-9711" stroke="#003264" stroke-width="2" stroke-linecap="round" stroke-linejoin="round"></line>
                    <line x1="70" y1="35" x2="79" y2="35" id="Stroke-9698" stroke="#003264" stroke-width="2" stroke-linecap="round" stroke-linejoin="round"></line>
                </g>
            </g>
        </g>
    </g>
</svg>